<svg width="658" height="658" viewBox="0 0 658 658" xmlns="http://www.w3.org/2000/svg" xmlns:xlink="http://www.w3.org/1999/xlink" xmlns:figma="http://www.figma.com/figma/ns"><title>Кружки</title><desc>Created using Figma</desc><g figma:type="canvas"><g figma:type="frame" transform="translate(402 -4858)"><mask id="b"><use xlink:href="#a" transform="translate(-274 4887)" fill="#FF3636" figma:type="rounded-rectangle"/></mask><g mask="url(#b)" figma:type="ellipse"><use xlink:href="#c" transform="translate(-358 4862)" fill="url(#d)"/></g><g mask="url(#b)" filter="url(#e)" figma:type="ellipse"><use xlink:href="#f" transform="translate(-308 4912)" fill="url(#g)"/></g><g mask="url(#b)" filter="url(#h)" figma:type="ellipse"><use xlink:href="#i" transform="translate(-258 4962)" fill="url(#j)"/></g><g mask="url(#b)" filter="url(#k)" figma:type="ellipse"><use xlink:href="#l" transform="translate(-208 5012)" fill="url(#m)"/></g></g></g><defs><filter id="e" filterUnits="userSpaceOnUse" x="-274" y="4887" width="432" height="550" color-interpolation-filters="sRGB"><feFlood flood-opacity="0" result="BackgroundImageFix"/><desc>type=&quot;dropShadow&quot; x=&quot;-15&quot; y=&quot;25&quot; size=&quot;79&quot; spread=&quot;0&quot; color=&quot;0,0,0,0.5&quot; blend=&quot;overlay&quot;</desc><feColorMatrix in="SourceAlpha" values="0 0 0 0 0 0 0 0 0 0 0 0 0 0 0 0 0 0 255 0"/><feOffset dx="-15" dy="25"/><feGaussianBlur stdDeviation="39.5"/><feColorMatrix values="0 0 0 0 0 0 0 0 0 0 0 0 0 0 0 0 0 0 0.5 0"/><feBlend mode="overlay" in2="BackgroundImageFix" result="effect1_dropShadow"/><feBlend in="SourceGraphic" in2="effect1_dropShadow" result="shape"/></filter><filter id="h" filterUnits="userSpaceOnUse" x="-274" y="4908" width="432" height="529" color-interpolation-filters="sRGB"><feFlood flood-opacity="0" result="BackgroundImageFix"/><desc>type=&quot;dropShadow&quot; x=&quot;-15&quot; y=&quot;25&quot; size=&quot;79&quot; spread=&quot;0&quot; color=&quot;0,0,0,0.5&quot; blend=&quot;overlay&quot;</desc><feColorMatrix in="SourceAlpha" values="0 0 0 0 0 0 0 0 0 0 0 0 0 0 0 0 0 0 255 0"/><feOffset dx="-15" dy="25"/><feGaussianBlur stdDeviation="39.5"/><feColorMatrix values="0 0 0 0 0 0 0 0 0 0 0 0 0 0 0 0 0 0 0.5 0"/><feBlend mode="overlay" in2="BackgroundImageFix" result="effect1_dropShadow"/><feBlend in="SourceGraphic" in2="effect1_dropShadow" result="shape"/></filter><filter id="k" filterUnits="userSpaceOnUse" x="-274" y="4958" width="430" height="458" color-interpolation-filters="sRGB"><feFlood flood-opacity="0" result="BackgroundImageFix"/><desc>type=&quot;dropShadow&quot; x=&quot;-15&quot; y=&quot;25&quot; size=&quot;79&quot; spread=&quot;0&quot; color=&quot;0,0,0,0.5&quot; blend=&quot;overlay&quot;</desc><feColorMatrix in="SourceAlpha" values="0 0 0 0 0 0 0 0 0 0 0 0 0 0 0 0 0 0 255 0"/><feOffset dx="-15" dy="25"/><feGaussianBlur stdDeviation="39.5"/><feColorMatrix values="0 0 0 0 0 0 0 0 0 0 0 0 0 0 0 0 0 0 0.5 0"/><feBlend mode="overlay" in2="BackgroundImageFix" result="effect1_dropShadow"/><feBlend in="SourceGraphic" in2="effect1_dropShadow" result="shape"/></filter><linearGradient id="d" x2="1" gradientUnits="userSpaceOnUse" gradientTransform="rotate(180 300 301.64) scale(606.562)"><stop offset=".022" stop-color="#FF4D4D"/><stop offset="1" stop-color="#F33"/></linearGradient><linearGradient id="g" x2="1" gradientUnits="userSpaceOnUse" gradientTransform="rotate(180 250 251.367) scale(505.469)"><stop offset=".022" stop-color="#FF4D4D"/><stop offset="1" stop-color="#F33"/></linearGradient><linearGradient id="j" x2="1" gradientUnits="userSpaceOnUse" gradientTransform="rotate(180 200 201.094) scale(404.375)"><stop offset=".022" stop-color="#FF4D4D"/><stop offset="1" stop-color="#F33"/></linearGradient><linearGradient id="m" x2="1" gradientUnits="userSpaceOnUse" gradientTransform="rotate(180 150 150.82) scale(303.281)"><stop offset=".022" stop-color="#FF4D4D"/><stop offset="1" stop-color="#F33"/></linearGradient><path id="a" d="M0 0h432v550H0V0z"/><path id="c" d="M600 300c0 165.685-134.315 300-300 300S0 465.685 0 300 134.315 0 300 0s300 134.315 300 300z"/><path id="f" d="M500 250c0 138.071-111.929 250-250 250S0 388.071 0 250 111.929 0 250 0s250 111.929 250 250z"/><path id="i" d="M400 200c0 110.457-89.543 200-200 200S0 310.457 0 200 89.543 0 200 0s200 89.543 200 200z"/><path id="l" d="M300 150c0 82.843-67.157 150-150 150S0 232.843 0 150 67.157 0 150 0s150 67.157 150 150z"/></defs></svg>