<svg width="206" height="67" viewBox="0 0 206 67" xmlns="http://www.w3.org/2000/svg" xmlns:xlink="http://www.w3.org/1999/xlink" xmlns:figma="http://www.figma.com/figma/ns"><title>Лого</title><desc>Created using Figma</desc><g figma:type="canvas"><g figma:type="frame"><use xlink:href="#a" fill="#F2F2F2" figma:type="vector"/><use xlink:href="#b" transform="translate(8.837 15.05)" fill="#F2F2F2" figma:type="vector"/><use xlink:href="#c" transform="translate(30.696 15.5)" fill="#F2F2F2" figma:type="vector"/><use xlink:href="#d" transform="translate(33.301 17.36)" fill="#A01015" figma:type="vector"/><use xlink:href="#e" transform="translate(10.304 19.64)" fill="#A01015" figma:type="vector"/><g figma:type="frame"><use xlink:href="#f" transform="translate(15.913 23.93)" fill="#A01015" figma:type="vector"/></g><g figma:type="frame"><use xlink:href="#g" transform="translate(33.772 23.83)" fill="#A01015" figma:type="vector"/></g><use xlink:href="#h" transform="translate(65.91 12.19)" fill="#F2F2F2" figma:type="vector"/><use xlink:href="#i" transform="translate(84.491 12.21)" fill="#F2F2F2" figma:type="vector"/><use xlink:href="#j" transform="translate(100.837 12.19)" fill="#F2F2F2" figma:type="vector"/><use xlink:href="#k" transform="translate(119.177 12.21)" fill="#F2F2F2" figma:type="vector"/><use xlink:href="#l" transform="translate(138.768 12.21)" fill="#F2F2F2" figma:type="vector"/><use xlink:href="#m" transform="translate(153.839 12.21)" fill="#F2F2F2" figma:type="vector"/><use xlink:href="#n" transform="translate(174.391 12.21)" fill="#F2F2F2" figma:type="vector"/><use xlink:href="#o" transform="translate(190.087 12.21)" fill="#F2F2F2" figma:type="vector"/><g figma:type="frame" fill="#A01015"><use xlink:href="#p" transform="translate(66.151 39.84)" figma:type="vector"/><use xlink:href="#q" transform="translate(84.323 39.38)" figma:type="vector"/><use xlink:href="#r" transform="translate(105.404 39.83)" figma:type="vector"/><use xlink:href="#s" transform="translate(124.105 39.83)" figma:type="vector"/><use xlink:href="#t" transform="translate(141.364 39.83)" figma:type="vector"/><use xlink:href="#u" transform="translate(155.305 39.81)" figma:type="vector"/></g></g></g><defs><path id="a" d="M31.2 0C18.63 1.584 4.833 6.863 0 9.959c0 1.872.144 4.44.529 7.487l.12.888C2.548 32.132 9.519 54.786 31.225 67 52.737 54.834 59.78 32.036 61.727 18.334c.048-.336.096-.648.144-.96.385-2.976.529-5.471.529-7.247C57.353 6.887 44.012 1.536 31.2 0zm29.038 18.526c-.697 4.68-2.044 10.87-4.712 17.542-2.404 6.023-5.528 11.47-9.23 16.15-4.23 5.351-9.303 9.767-15.072 13.126-5.84-3.407-10.936-7.823-15.191-13.15-3.75-4.68-6.85-10.127-9.254-16.126-2.428-6.072-3.87-12.239-4.64-17.494a2.699 2.699 0 0 1 .721-2.256c4.832-5.111 12.332-11.47 28.509-11.83 15.937.36 23.196 6.479 28.172 11.758.552.624.817 1.44.697 2.28z"/><path id="b" d="M19.383.624C19.31.288 19.07.048 18.758 0h-.145L.561 3.6a.706.706 0 0 0-.432.312c-.12.168-.145.383-.12.6L5.2 30.595c.073.336.313.576.625.624h.145l13.917-2.76.673-.12 3.558-.695c.384-.072.625-.48.553-.888l-2.668-13.415L21.738 12 19.383.624z"/><path id="c" d="M20.792 2.405L2.548.005a.748.748 0 0 0-.817.672L.312 11.476l2.933 14.686c.12.648-.264 1.296-.913 1.416L0 28.034l17.115 2.256a.748.748 0 0 0 .817-.672l3.461-26.373a.72.72 0 0 0-.6-.84z"/><path id="d" d="M.255.306c.65-.744 1.803 0 1.659.816C1.962.282 3.26-.126 3.717.738 4.366 2.01 1.986 3.45 1.553 3.786 1.241 3.378-.682 1.362.255.306z"/><path id="e" d="M2.436 3.828C2.003 3.516-.473 2.244.08.925c.385-.912 1.707-.576 1.827.263-.216-.815.89-1.607 1.586-.935 1.034 1.007-.769 3.143-1.057 3.575z"/><path id="f" d="M4.519 14.542l-4.399.84-.12-.576c.433-.288.89-.552 1.322-.744L3.846.12 4.423 0l7.476 12.07c.264 0 .552.025.817.025.264.024.529.071.769.167l.12.576-5.096.96-.12-.576c.24-.144.505-.287.77-.431.264-.12.528-.24.768-.36L7.908 9.07l-4.711.888-.601 3.863a7.629 7.629 0 0 1 1.779.144l.144.576zM3.437 8.855l3.967-.744L5.24 4.199l-.89-1.607h-.047l-.265 1.823-.6 4.44z"/><path id="g" d="M8.437.84l4.207.552-.072.552c-.265.072-.53.144-.77.192-.24.048-.504.072-.72.096l-4.496 4.56c.265.455.577.983.914 1.559.336.576.697 1.176 1.081 1.776.385.6.77 1.224 1.178 1.848.409.623.793 1.223 1.178 1.8l.865.575-.072.48-2.38-.312-.576-.552a71.413 71.413 0 0 1-1.875-3.12 89.137 89.137 0 0 1-1.755-3.359l-.937-.12-.698 5.352c.577.168 1.034.383 1.37.647l-.072.552L0 13.294l.072-.552a7.468 7.468 0 0 1 1.61-.24l1.49-11.278a4.962 4.962 0 0 1-1.49-.672L1.756 0l4.807.624-.072.552a5.92 5.92 0 0 1-.697.168 6.93 6.93 0 0 1-.793.12l-.697 5.255L5.48 6.6l4.23-4.535a6.132 6.132 0 0 1-.697-.312 2.494 2.494 0 0 1-.6-.36L8.436.84z"/><path id="h" d="M17.403 19.126H13.99l-1.731-5.064H5.072l-1.779 5.064H0L6.995 0h3.39l7.018 19.126zM8.726 3.48l-2.837 8.039h5.529l-2.692-8.04z"/><path id="i" d="M7.932 7.607l7.716 11.47h-3.942L5.745 9.936 3.149 12.67v6.407H0V0h3.149v8.663L11.177 0h4.015l-7.26 7.607z"/><path id="j" d="M17.403 19.126H13.99l-1.731-5.064H5.072l-1.779 5.064H0L6.995 0h3.39l7.018 19.126zM8.726 3.48l-2.837 8.063h5.529L8.726 3.48z"/><path id="k" d="M14.903 23.853v-4.751H3.077v4.751H0v-7.63h1.755c1.37-2.569 2.38-7.992 2.38-13.247V0H15.96v16.198h2.043v7.631h-3.1v.024zm-2.14-20.95H7.236v1.153c0 4.751-.937 9.766-2.067 12.142h7.596V2.904z"/><path id="l" d="M13.076 2.808H3.173V7.87h9.182v2.712H3.173v5.64H13.22v2.879H0V0h13.052v2.808h.024z"/><path id="m" d="M18.845 19.102h-3.028V4.367l-5.048 14.71H8.173L3.005 4.368v14.71H0V0h4.447l5.072 14.926L14.422 0h4.423v19.102z"/><path id="n" d="M0 0h3.173v14.638L10.96 0h3.702v19.102H11.49V4.463L3.702 19.102H0V0z"/><path id="o" d="M12.716 19.102v-7.895H9.11l-5.144 7.895H0l5.577-8.207C2.38 9.839 1.659 7.703 1.659 5.279 1.659 2.112 3.798 0 7.668 0h8.245v19.102h-3.197zm0-16.366H7.98c-2.163 0-3.148.864-3.148 2.831 0 2.016 1.081 3.096 3.1 3.096h4.784V2.736z"/><path id="p" d="M15.264 19.102h-3.317V2.904h-8.63v16.198H0V0h15.24v19.102h.024z"/><path id="q" d="M18.124 10.007c0 5.951-3.678 10.007-9.062 10.007C3.654 20.014 0 15.958 0 10.007 0 4.39 3.341 0 9.11 0c5.336 0 9.014 4.08 9.014 10.007zM3.365 9.959c0 4.463 2.212 7.247 5.77 7.247 3.437 0 5.672-2.832 5.672-7.223 0-4.368-2.211-7.151-5.72-7.151-3.462-.024-5.722 2.807-5.722 7.127z"/><path id="r" d="M8.269 7.631l8.028 11.47h-4.11L5.985 9.96l-2.692 2.736v6.407H0V0h3.293v8.663L11.634 0h4.183L8.269 7.631z"/><path id="s" d="M13.557 2.808H3.27V7.87h9.543v2.712H3.269v5.64h10.456v2.879H0V0h13.581v2.808h-.024z"/><path id="t" d="M8.173 0c3.894 0 6.562 1.824 6.562 5.831 0 3.624-2.308 5.928-6.106 5.928H3.317v7.343H0V0h8.173zm-4.88 9.047h4.615c2.14 0 3.606-.888 3.606-3.144 0-2.471-1.803-3.12-3.894-3.12H3.317v6.264h-.024z"/><path id="u" d="M18.1 19.126h-3.557l-1.803-5.064H5.264l-1.85 5.064H0L7.283 0h3.51L18.1 19.126zM9.086 3.48l-2.932 8.063h5.745L9.085 3.48z"/></defs></svg>