<svg width="658" height="658" viewBox="0 0 658 658" version="1.1" xmlns="http://www.w3.org/2000/svg" xmlns:xlink="http://www.w3.org/1999/xlink" xmlns:figma="http://www.figma.com/figma/ns">
<title>&#208;&#154;&#209;&#128;&#209;&#131;&#208;&#182;&#208;&#186;&#208;&#184;</title>
<desc>Created using Figma</desc>
<g id="Canvas" transform="translate(402 -4858)" figma:type="canvas">
<g id="&#208;&#154;&#209;&#128;&#209;&#131;&#208;&#182;&#208;&#186;&#208;&#184;" figma:type="frame">
<mask id="mask0_alpha" mask-type="alpha">
<g id="&#208;&#191;&#208;&#190;&#208;&#180;&#208;&#187;&#208;&#190;&#208;&#182;&#208;&#186;&#208;&#176; &#208;&#186;&#209;&#128;&#208;&#176;&#209;&#129;&#208;&#189;&#208;&#176;&#209;&#143;" figma:type="rounded-rectangle">
<use xlink:href="#path0_fill" transform="translate(-274 4887)" fill="#FF3636"/>
</g>
</mask>
<g id="Ellipse 4" mask="url(#mask0_alpha)" figma:type="ellipse">
<use xlink:href="#path1_fill" transform="translate(-358 4862)" fill="url(#paint1_linear)"/>
</g>
<g id="Ellipse 4" mask="url(#mask0_alpha)" filter="url(#filter0_d)" figma:type="ellipse">
<use xlink:href="#path2_fill" transform="translate(-308 4912)" fill="url(#paint2_linear)"/>
</g>
<g id="Ellipse 4" mask="url(#mask0_alpha)" filter="url(#filter1_d)" figma:type="ellipse">
<use xlink:href="#path3_fill" transform="translate(-258 4962)" fill="url(#paint3_linear)"/>
</g>
<g id="Ellipse 4" mask="url(#mask0_alpha)" filter="url(#filter2_d)" figma:type="ellipse">
<use xlink:href="#path4_fill" transform="translate(-208 5012)" fill="url(#paint4_linear)"/>
</g>
</g>
</g>
<defs>
<filter id="filter0_d" filterUnits="userSpaceOnUse" x="-274" y="4887" width="432" height="550" color-interpolation-filters="sRGB">
<feFlood flood-opacity="0" result="BackgroundImageFix"/>
<desc>type="dropShadow" x="-15" y="25" size="79" spread="0" color="0,0,0,0.5" blend="overlay"</desc>
<feColorMatrix in="SourceAlpha" type="matrix" values="0 0 0 0 0 0 0 0 0 0 0 0 0 0 0 0 0 0 255 0"/>
<feOffset dx="-15" dy="25"/>
<feGaussianBlur stdDeviation="39.5"/>
<feColorMatrix type="matrix" values="0 0 0 0 0 0 0 0 0 0 0 0 0 0 0 0 0 0 0.5 0"/>
<feBlend mode="overlay" in2="BackgroundImageFix" result="effect1_dropShadow"/>
<feBlend mode="normal" in="SourceGraphic" in2="effect1_dropShadow" result="shape"/>
</filter>
<filter id="filter1_d" filterUnits="userSpaceOnUse" x="-274" y="4908" width="432" height="529" color-interpolation-filters="sRGB">
<feFlood flood-opacity="0" result="BackgroundImageFix"/>
<desc>type="dropShadow" x="-15" y="25" size="79" spread="0" color="0,0,0,0.5" blend="overlay"</desc>
<feColorMatrix in="SourceAlpha" type="matrix" values="0 0 0 0 0 0 0 0 0 0 0 0 0 0 0 0 0 0 255 0"/>
<feOffset dx="-15" dy="25"/>
<feGaussianBlur stdDeviation="39.5"/>
<feColorMatrix type="matrix" values="0 0 0 0 0 0 0 0 0 0 0 0 0 0 0 0 0 0 0.5 0"/>
<feBlend mode="overlay" in2="BackgroundImageFix" result="effect1_dropShadow"/>
<feBlend mode="normal" in="SourceGraphic" in2="effect1_dropShadow" result="shape"/>
</filter>
<filter id="filter2_d" filterUnits="userSpaceOnUse" x="-274" y="4958" width="430" height="458" color-interpolation-filters="sRGB">
<feFlood flood-opacity="0" result="BackgroundImageFix"/>
<desc>type="dropShadow" x="-15" y="25" size="79" spread="0" color="0,0,0,0.5" blend="overlay"</desc>
<feColorMatrix in="SourceAlpha" type="matrix" values="0 0 0 0 0 0 0 0 0 0 0 0 0 0 0 0 0 0 255 0"/>
<feOffset dx="-15" dy="25"/>
<feGaussianBlur stdDeviation="39.5"/>
<feColorMatrix type="matrix" values="0 0 0 0 0 0 0 0 0 0 0 0 0 0 0 0 0 0 0.5 0"/>
<feBlend mode="overlay" in2="BackgroundImageFix" result="effect1_dropShadow"/>
<feBlend mode="normal" in="SourceGraphic" in2="effect1_dropShadow" result="shape"/>
</filter>
<linearGradient id="paint1_linear" x1="0" y1="0" x2="1" y2="0" gradientUnits="userSpaceOnUse" gradientTransform="matrix(-606.562 1.78814e-05 -1.78814e-05 -606.562 600 603.281)">
<stop offset="0.0222222" stop-color="#FF4D4D"/>
<stop offset="1" stop-color="#FF3333"/>
</linearGradient>
<linearGradient id="paint2_linear" x1="0" y1="0" x2="1" y2="0" gradientUnits="userSpaceOnUse" gradientTransform="matrix(-505.469 1.49012e-05 -1.49012e-05 -505.469 500 502.734)">
<stop offset="0.0222222" stop-color="#FF4D4D"/>
<stop offset="1" stop-color="#FF3333"/>
</linearGradient>
<linearGradient id="paint3_linear" x1="0" y1="0" x2="1" y2="0" gradientUnits="userSpaceOnUse" gradientTransform="matrix(-404.375 1.19209e-05 -1.19209e-05 -404.375 400 402.187)">
<stop offset="0.0222222" stop-color="#FF4D4D"/>
<stop offset="1" stop-color="#FF3333"/>
</linearGradient>
<linearGradient id="paint4_linear" x1="0" y1="0" x2="1" y2="0" gradientUnits="userSpaceOnUse" gradientTransform="matrix(-303.281 8.9407e-06 -8.9407e-06 -303.281 300 301.641)">
<stop offset="0.0222222" stop-color="#FF4D4D"/>
<stop offset="1" stop-color="#FF3333"/>
</linearGradient>
<path id="path0_fill" d="M 0 0L 432 0L 432 550L 0 550L 0 0Z"/>
<path id="path1_fill" d="M 600 300C 600 465.685 465.685 600 300 600C 134.315 600 0 465.685 0 300C 0 134.315 134.315 0 300 0C 465.685 0 600 134.315 600 300Z"/>
<path id="path2_fill" d="M 500 250C 500 388.071 388.071 500 250 500C 111.929 500 0 388.071 0 250C 0 111.929 111.929 0 250 0C 388.071 0 500 111.929 500 250Z"/>
<path id="path3_fill" d="M 400 200C 400 310.457 310.457 400 200 400C 89.5431 400 0 310.457 0 200C 0 89.5431 89.5431 0 200 0C 310.457 0 400 89.5431 400 200Z"/>
<path id="path4_fill" d="M 300 150C 300 232.843 232.843 300 150 300C 67.1573 300 0 232.843 0 150C 0 67.1573 67.1573 0 150 0C 232.843 0 300 67.1573 300 150Z"/>
</defs>
</svg>
