<svg width="206" height="67" viewBox="0 0 206 67" version="1.1" xmlns="http://www.w3.org/2000/svg" xmlns:xlink="http://www.w3.org/1999/xlink" xmlns:figma="http://www.figma.com/figma/ns">
<title>&#208;&#155;&#208;&#190;&#208;&#179;&#208;&#190;</title>
<desc>Created using Figma</desc>
<g id="Canvas" transform="translate(-381 -5612)" figma:type="canvas">
<g id="&#208;&#155;&#208;&#190;&#208;&#179;&#208;&#190;" figma:type="frame">
<g id="Vector" figma:type="vector">
<use xlink:href="#path0_fill" transform="translate(381 5612)" fill="#F2F2F2"/>
</g>
<g id="Vector" figma:type="vector">
<use xlink:href="#path1_fill" transform="translate(389.837 5627.05)" fill="#F2F2F2"/>
</g>
<g id="Vector" figma:type="vector">
<use xlink:href="#path2_fill" transform="translate(411.696 5627.5)" fill="#F2F2F2"/>
</g>
<g id="Vector" figma:type="vector">
<use xlink:href="#path3_fill" transform="translate(414.301 5629.36)" fill="#A01015"/>
</g>
<g id="Vector" figma:type="vector">
<use xlink:href="#path4_fill" transform="translate(391.304 5631.64)" fill="#A01015"/>
</g>
<g id="Group" figma:type="frame">
<g id="Vector" figma:type="vector">
<use xlink:href="#path5_fill" transform="translate(396.913 5635.93)" fill="#A01015"/>
</g>
</g>
<g id="Group" figma:type="frame">
<g id="Vector" figma:type="vector">
<use xlink:href="#path6_fill" transform="translate(414.772 5635.83)" fill="#A01015"/>
</g>
</g>
<g id="Vector" figma:type="vector">
<use xlink:href="#path7_fill" transform="translate(446.91 5624.19)" fill="#F2F2F2"/>
</g>
<g id="Vector" figma:type="vector">
<use xlink:href="#path8_fill" transform="translate(465.491 5624.21)" fill="#F2F2F2"/>
</g>
<g id="Vector" figma:type="vector">
<use xlink:href="#path9_fill" transform="translate(481.837 5624.19)" fill="#F2F2F2"/>
</g>
<g id="Vector" figma:type="vector">
<use xlink:href="#path10_fill" transform="translate(500.177 5624.21)" fill="#F2F2F2"/>
</g>
<g id="Vector" figma:type="vector">
<use xlink:href="#path11_fill" transform="translate(519.768 5624.21)" fill="#F2F2F2"/>
</g>
<g id="Vector" figma:type="vector">
<use xlink:href="#path12_fill" transform="translate(534.839 5624.21)" fill="#F2F2F2"/>
</g>
<g id="Vector" figma:type="vector">
<use xlink:href="#path13_fill" transform="translate(555.391 5624.21)" fill="#F2F2F2"/>
</g>
<g id="Vector" figma:type="vector">
<use xlink:href="#path14_fill" transform="translate(571.087 5624.21)" fill="#F2F2F2"/>
</g>
<g id="Group" figma:type="frame">
<g id="Vector" figma:type="vector">
<use xlink:href="#path15_fill" transform="translate(447.151 5651.84)" fill="#A01015"/>
</g>
<g id="Vector" figma:type="vector">
<use xlink:href="#path16_fill" transform="translate(465.323 5651.38)" fill="#A01015"/>
</g>
<g id="Vector" figma:type="vector">
<use xlink:href="#path17_fill" transform="translate(486.404 5651.83)" fill="#A01015"/>
</g>
<g id="Vector" figma:type="vector">
<use xlink:href="#path18_fill" transform="translate(505.105 5651.83)" fill="#A01015"/>
</g>
<g id="Vector" figma:type="vector">
<use xlink:href="#path19_fill" transform="translate(522.364 5651.83)" fill="#A01015"/>
</g>
<g id="Vector" figma:type="vector">
<use xlink:href="#path20_fill" transform="translate(536.305 5651.81)" fill="#A01015"/>
</g>
</g>
</g>
</g>
<defs>
<path id="path0_fill" d="M 31.2005 0C 18.6289 1.58381 4.83151 6.86318 0 9.95881C 0 11.8306 0.144224 14.3983 0.528821 17.4459L 0.649008 18.3338C 2.54796 32.1322 9.51878 54.7855 31.2245 67C 52.7379 54.8335 59.7809 32.0362 61.7279 18.3338C 61.776 17.9979 61.824 17.6859 61.8721 17.3739C 62.2567 14.3983 62.4009 11.9026 62.4009 10.1268C 57.3531 6.88718 44.0124 1.53582 31.2005 0ZM 60.2376 18.5258C 59.5405 23.2052 58.1944 29.3965 55.5263 36.0677C 53.1225 42.091 49.9977 47.5383 46.2959 52.2178C 42.0653 57.5691 36.9935 61.9846 31.2245 65.3442C 25.3834 61.9366 20.2875 57.5211 16.0329 52.1938C 12.2831 47.5143 9.18226 42.067 6.77853 36.0677C 4.35076 29.9964 2.90852 23.8292 2.13932 18.5738C 2.01914 17.7579 2.28355 16.918 2.86044 16.3181C 7.69195 11.2067 15.1916 4.84742 31.3687 4.48746C 47.3055 4.84742 54.5648 10.9667 59.5405 16.2461C 60.0933 16.87 60.3578 17.6859 60.2376 18.5258Z"/>
<path id="path1_fill" d="M 19.3825 0.623926C 19.3104 0.287966 19.07 0.0479944 18.7575 1.83084e-07C 18.7094 1.83084e-07 18.6614 1.83084e-07 18.6133 1.83084e-07L 0.561235 3.59957C 0.392973 3.64756 0.224712 3.74355 0.128563 3.91153C 0.0083761 4.07951 -0.0156613 4.29549 0.00837609 4.51146L 5.20044 30.5963C 5.27255 30.9323 5.51293 31.1723 5.82541 31.2203C 5.87349 31.2203 5.92156 31.2203 5.96964 31.2203L 19.8873 28.4606L 20.5603 28.3406L 24.1178 27.6447C 24.5024 27.5727 24.7428 27.1648 24.6707 26.7568L 22.0025 13.3424L 21.7381 11.9986L 19.3825 0.623926Z"/>
<path id="path2_fill" d="M 20.7923 2.40493L 2.54796 0.00521407C 2.16336 -0.0427802 1.77876 0.245186 1.73069 0.677135L 0.312485 11.4758L 3.24504 26.1621C 3.36523 26.81 2.98063 27.4579 2.33162 27.5779L -7.33561e-07 28.0339L 17.1146 30.2896C 17.4992 30.3376 17.8838 30.0496 17.9319 29.6177L 21.3932 3.24483C 21.4653 2.83688 21.1769 2.45292 20.7923 2.40493Z"/>
<path id="path3_fill" d="M 0.255285 0.306355C 0.904293 -0.437556 2.05808 0.306356 1.91386 1.12226C 1.96193 0.282359 3.25995 -0.125592 3.71666 0.738305C 4.36567 2.01015 1.98597 3.44998 1.5533 3.78594C 1.24081 3.37799 -0.682172 1.36223 0.255285 0.306355Z"/>
<path id="path4_fill" d="M 2.43573 3.82816C 2.00306 3.5162 -0.472789 2.24435 0.08007 0.924504C 0.464667 0.0126129 1.78672 0.348574 1.90691 1.18847C 1.69057 0.372571 2.79629 -0.419334 3.49337 0.252585C 4.52698 1.26046 2.72418 3.39621 2.43573 3.82816Z"/>
<path id="path5_fill" d="M 4.51902 14.5423L 0.120186 15.3822L -7.33561e-07 14.8062C 0.432671 14.5183 0.889381 14.2543 1.32205 14.0623L 3.84597 0.119985L 4.42287 -7.32334e-07L 11.8985 12.0706C 12.1629 12.0706 12.4513 12.0946 12.7158 12.0946C 12.9802 12.1186 13.2446 12.1665 13.4849 12.2625L 13.6051 12.8385L 8.50922 13.7984L 8.38903 13.2224C 8.6294 13.0784 8.89382 12.9345 9.15823 12.7905C 9.42264 12.6705 9.68705 12.5505 9.92742 12.4305L 7.90828 9.07092L 3.19697 9.95881L 2.59603 13.8223C 3.17293 13.7984 3.74983 13.8463 4.3748 13.9663L 4.51902 14.5423ZM 3.43734 8.85494L 7.4035 8.11103L 5.24014 4.1995L 4.35076 2.59169L 4.30268 2.59169L 4.03827 4.41547L 3.43734 8.85494Z"/>
<path id="path6_fill" d="M 8.43711 0.8399L 12.6436 1.39183L 12.5715 1.94377C 12.3071 2.01576 12.0427 2.08775 11.8023 2.13574C 11.562 2.18374 11.2976 2.20774 11.0812 2.23173L 6.58623 6.79119C 6.85064 7.24713 7.16313 7.77507 7.49965 8.351C 7.83617 8.92694 8.19673 9.52686 8.58133 10.1268C 8.96593 10.7267 9.35053 11.3506 9.75916 11.9746C 10.1678 12.5985 10.5524 13.1984 10.937 13.7744L 11.8023 14.3503L 11.7302 14.8302L 9.35052 14.5183L 8.77363 13.9663C 8.14866 12.9824 7.52369 11.9506 6.89872 10.8467C 6.29778 9.74284 5.69685 8.61497 5.14399 7.48711L 4.20653 7.36712L 3.50945 12.7185C 4.08635 12.8865 4.54306 13.1024 4.87958 13.3664L 4.80747 13.9183L 1.36636e-14 13.2944L 0.0721128 12.7425C 0.600934 12.5985 1.15379 12.5265 1.68261 12.5025L 3.17293 1.22385C 2.62007 1.07987 2.11529 0.839899 1.68261 0.551934L 1.75473 7.32334e-07L 6.56219 0.623926L 6.49008 1.17586C 6.27375 1.24785 6.03337 1.29585 5.793 1.34384C 5.55263 1.39183 5.28822 1.43983 4.99977 1.46383L 4.30268 6.7192L 5.48051 6.59921L 9.71108 2.06375C 9.47071 1.96777 9.23034 1.87178 9.014 1.75179C 8.79767 1.6558 8.58133 1.53582 8.41307 1.39183L 8.43711 0.8399Z"/>
<path id="path7_fill" d="M 17.403 19.1257L 13.9897 19.1257L 12.259 14.0623L 5.07188 14.0623L 3.29311 19.1257L 2.93425e-06 19.1257L 6.99486 -1.83084e-07L 10.3841 -1.83084e-07L 17.403 19.1257ZM 8.72555 3.47959L 5.88915 11.5186L 11.4177 11.5186L 8.72555 3.47959Z"/>
<path id="path8_fill" d="M 7.93232 7.60709L 15.6483 19.0777L 11.7062 19.0777L 5.74492 9.93481L 3.14889 12.6705L 3.14889 19.0777L 0 19.0777L 0 3.66167e-07L 3.14889 3.66167e-07L 3.14889 8.66296L 11.1774 3.66167e-07L 15.1916 3.66167e-07L 7.93232 7.60709Z"/>
<path id="path9_fill" d="M 17.403 19.1257L 13.9897 19.1257L 12.259 14.0623L 5.07188 14.0623L 3.29312 19.1257L -1.36636e-14 19.1257L 6.99487 -1.83084e-07L 10.3841 -1.83084e-07L 17.403 19.1257ZM 8.72555 3.47959L 5.88915 11.5426L 11.4177 11.5426L 8.72555 3.47959Z"/>
<path id="path10_fill" d="M 14.9031 23.8532L 14.9031 19.1017L 3.07678 19.1017L 3.07678 23.8532L -2.93425e-06 23.8532L -2.93425e-06 16.2221L 1.75473 16.2221C 3.12486 13.6544 4.13442 8.23102 4.13442 2.97564L 4.13442 3.66167e-07L 15.9608 3.66167e-07L 15.9608 16.1981L 18.004 16.1981L 18.004 23.8292L 14.9031 23.8292L 14.9031 23.8532ZM 12.7638 2.90365L 7.23525 2.90365L 7.23525 4.05552C 7.23525 8.80695 6.29778 13.8223 5.16803 16.1981L 12.7638 16.1981L 12.7638 2.90365Z"/>
<path id="path11_fill" d="M 13.0763 2.80766L 3.17293 2.80766L 3.17293 7.87106L 12.3552 7.87106L 12.3552 10.5827L 3.17293 10.5827L 3.17293 16.2221L 13.2205 16.2221L 13.2205 19.1017L -2.93425e-06 19.1017L -2.93425e-06 3.66167e-07L 13.0523 3.66167e-07L 13.0523 2.80766L 13.0763 2.80766Z"/>
<path id="path12_fill" d="M 18.8453 19.1017L 15.8166 19.1017L 15.8166 4.36748L 10.7687 19.0777L 8.1727 19.0777L 3.00467 4.36748L 3.00467 19.0777L 0 19.0777L 0 3.66167e-07L 4.44691 3.66167e-07L 9.51878 14.9262L 14.4224 3.66167e-07L 18.8453 3.66167e-07L 18.8453 19.1017Z"/>
<path id="path13_fill" d="M 0 3.66167e-07L 3.17293 3.66167e-07L 3.17293 14.6383L 10.961 3.66167e-07L 14.6628 3.66167e-07L 14.6628 19.1017L 11.4898 19.1017L 11.4898 4.46347L 3.70176 19.1017L 0 19.1017L 0 3.66167e-07Z"/>
<path id="path14_fill" d="M 12.7158 19.1017L 12.7158 11.2067L 9.11016 11.2067L 3.96616 19.1017L -2.93425e-06 19.1017L 5.57666 10.8947C 2.3797 9.83883 1.65858 7.70308 1.65858 5.27937C 1.65858 2.11175 3.7979 3.66167e-07 7.66791 3.66167e-07L 15.9127 3.66167e-07L 15.9127 19.1017L 12.7158 19.1017ZM 12.7158 2.73567L 7.9804 2.73567C 5.81704 2.73567 4.83151 3.59957 4.83151 5.56734C 4.83151 7.58309 5.91318 8.66296 7.93232 8.66296L 12.7158 8.66296L 12.7158 2.73567Z"/>
<path id="path15_fill" d="M 15.2637 19.1017L 11.9466 19.1017L 11.9466 2.90365L 3.31715 2.90365L 3.31715 19.1017L 2.93425e-06 19.1017L 2.93425e-06 0L 15.2397 0L 15.2397 19.1017L 15.2637 19.1017Z"/>
<path id="path16_fill" d="M 18.1242 10.0068C 18.1242 15.9581 14.4464 20.0136 9.06208 20.0136C 3.65368 20.0136 -2.93425e-06 15.9581 -2.93425e-06 10.0068C -2.93425e-06 4.39148 3.34119 1.46467e-06 9.11016 1.46467e-06C 14.4464 1.46467e-06 18.1242 4.07951 18.1242 10.0068ZM 3.36522 9.95881C 3.36522 14.4223 5.57666 17.2059 9.13419 17.2059C 12.5715 17.2059 14.807 14.3743 14.807 9.98281C 14.807 5.61533 12.5956 2.83166 9.08612 2.83166C 5.62474 2.80766 3.36522 5.63933 3.36522 9.95881Z"/>
<path id="path17_fill" d="M 8.26884 7.63109L 16.2973 19.1017L 12.1869 19.1017L 5.9853 9.95881L 3.29312 12.6945L 3.29312 19.1017L 1.36636e-14 19.1017L 1.36636e-14 0L 3.29312 0L 3.29312 8.66297L 11.6341 0L 15.8166 0L 8.26884 7.63109Z"/>
<path id="path18_fill" d="M 13.5571 2.80766L 3.26908 2.80766L 3.26908 7.87106L 12.8119 7.87106L 12.8119 10.5827L 3.26908 10.5827L 3.26908 16.2221L 13.7253 16.2221L 13.7253 19.1017L -2.93425e-06 19.1017L -2.93425e-06 0L 13.5811 0L 13.5811 2.80766L 13.5571 2.80766Z"/>
<path id="path19_fill" d="M 8.17269 0C 12.0667 0 14.7349 1.82378 14.7349 5.8313C 14.7349 9.45487 12.4273 11.7586 8.62941 11.7586L 3.31716 11.7586L 3.31716 19.1017L -5.86849e-06 19.1017L -5.86849e-06 0L 8.17269 0ZM 3.29311 9.04692L 7.90828 9.04692C 10.0476 9.04692 11.5139 8.15903 11.5139 5.9033C 11.5139 3.43159 9.71108 2.78367 7.61983 2.78367L 3.31716 2.78367L 3.31716 9.04692L 3.29311 9.04692Z"/>
<path id="path20_fill" d="M 18.1001 19.1257L 14.5426 19.1257L 12.7398 14.0623L 5.26418 14.0623L 3.4133 19.1257L -5.86849e-06 19.1257L 7.28332 -1.46467e-06L 10.7928 -1.46467e-06L 18.1001 19.1257ZM 9.08612 3.47958L 6.15356 11.5426L 11.8985 11.5426L 9.08612 3.47958Z"/>
</defs>
</svg>
