<svg width="20" height="23" viewBox="0 0 20 23" xmlns="http://www.w3.org/2000/svg" xmlns:xlink="http://www.w3.org/1999/xlink" xmlns:figma="http://www.figma.com/figma/ns"><title>Clubs</title><desc>Created using Figma</desc><g figma:type="canvas"><use xlink:href="#a" fill="#FFF" figma:type="vector"/></g><defs><path id="a" d="M19.076 9.438c-.944-1.788-3.08-2.583-5.018-1.987-.347.1-.794.249-1.192.398a9.418 9.418 0 0 0 1.043-2.335c.596-1.937-.198-4.073-1.987-5.017C11.326.199 10.78 0 10.084 0c-.695 0-1.39.199-1.937.497-1.788.944-2.583 3.08-1.987 5.017.199.696.546 1.64.944 2.434a23.475 23.475 0 0 0-1.59-.596C3.577 6.756 1.441 7.551.497 9.34.199 9.935 0 10.581 0 11.277c0 .695.149 1.241.497 1.838.944 1.788 3.08 2.583 5.017 1.986.795-.248 1.888-.695 2.782-1.34L7.253 23h5.116l-1.043-9.24c.894.646 1.987 1.093 2.782 1.341 1.937.597 4.073-.198 5.017-1.987.298-.596.497-1.142.497-1.838-.05-.596-.248-1.241-.546-1.838z"/></defs></svg>