<svg width="8" height="8" viewBox="0 0 8 8" xmlns="http://www.w3.org/2000/svg" xmlns:xlink="http://www.w3.org/1999/xlink" xmlns:figma="http://www.figma.com/figma/ns"><title>Ellipse 5</title><desc>Created using Figma</desc><g figma:type="canvas"><g figma:type="ellipse" transform="translate(63 -5208)"><mask id="b"><use xlink:href="#a" fill="#fff" transform="translate(-63 5208)"/></mask><g mask="url(#b)"><use xlink:href="#c" transform="translate(-63 5208)" fill="#FFF"/></g></g></g><defs><path id="a" d="M8 4a4 4 0 1 1-8 0 4 4 0 0 1 8 0z"/><path id="c" d="M7 4a3 3 0 0 1-3 3v2a5 5 0 0 0 5-5H7zM4 7a3 3 0 0 1-3-3h-2a5 5 0 0 0 5 5V7zM1 4a3 3 0 0 1 3-3v-2a5 5 0 0 0-5 5h2zm3-3a3 3 0 0 1 3 3h2a5 5 0 0 0-5-5v2z"/></defs></svg>