<svg width="14" height="24" viewBox="0 0 14 24" xmlns="http://www.w3.org/2000/svg" xmlns:xlink="http://www.w3.org/1999/xlink" xmlns:figma="http://www.figma.com/figma/ns"><title>Vector</title><desc>Created using Figma</desc><g figma:type="canvas"><use xlink:href="#a" fill="#3B5998" figma:type="vector"/></g><defs><path id="a" d="M12.703.005L9.537 0C5.98 0 3.68 2.318 3.68 5.906V8.63H.498A.494.494 0 0 0 0 9.12v3.945c0 .27.223.49.498.49H3.68v9.956c0 .27.223.489.498.489h4.153c.275 0 .498-.22.498-.49v-9.956h3.722a.493.493 0 0 0 .498-.489l.002-3.946a.486.486 0 0 0-.146-.346.502.502 0 0 0-.352-.143H8.83V6.32c0-1.11.27-1.673 1.74-1.673h2.132c.275 0 .498-.22.498-.49V.494a.494.494 0 0 0-.497-.489z"/></defs></svg>