<svg width="16" height="12" viewBox="0 0 16 12" xmlns="http://www.w3.org/2000/svg" xmlns:xlink="http://www.w3.org/1999/xlink" xmlns:figma="http://www.figma.com/figma/ns"><title>Mail</title><desc>Created using Figma</desc><g figma:type="canvas"><g figma:type="frame" fill="#333"><use xlink:href="#a" figma:type="vector"/><use xlink:href="#b" transform="translate(0 3.87)" figma:type="vector"/></g></g><defs><path id="a" d="M1.536 3.699c.202.136.812.541 1.83 1.214a448.5 448.5 0 0 1 2.34 1.556l.379.26a10.592 10.592 0 0 0 .946.601c.182.102.353.178.514.23.16.05.31.076.446.076h.018c.137 0 .286-.025.446-.077.161-.05.332-.127.514-.23a9.751 9.751 0 0 0 .946-.6c.194-.134.32-.22.38-.26.547-.364 1.94-1.287 4.178-2.77a4.15 4.15 0 0 0 1.09-1.049c.291-.409.437-.837.437-1.286a1.28 1.28 0 0 0-.424-.963A1.414 1.414 0 0 0 14.57 0H1.43C.97 0 .618.148.37.443.123.74 0 1.108 0 1.551c0 .358.164.746.491 1.163.327.418.676.746 1.045.985z"/><path id="b" d="M15.107.741a186.073 186.073 0 0 0-4.446 2.94c-.34.24-.615.426-.826.559-.212.134-.493.27-.844.41a2.697 2.697 0 0 1-.982.208h-.018c-.304 0-.63-.07-.982-.209a5.194 5.194 0 0 1-.844-.409c-.211-.133-.486-.32-.826-.558C4.536 3.119 3.057 2.139.902.742A4.675 4.675 0 0 1 0 0v6.767c0 .375.14.696.42.963.28.267.616.4 1.009.4h13.143c.392 0 .729-.133 1.008-.4.28-.267.42-.588.42-.963V0c-.256.273-.553.52-.893.741z"/></defs></svg>