<svg width="70" height="82" viewBox="0 0 70 82" xmlns="http://www.w3.org/2000/svg" xmlns:xlink="http://www.w3.org/1999/xlink" xmlns:figma="http://www.figma.com/figma/ns"><title>Личный менеджер</title><desc>Created using Figma</desc><g figma:type="canvas"><g figma:type="frame"><use xlink:href="#a" transform="translate(4.775)" fill="#5A4146" figma:type="vector"/><use xlink:href="#b" transform="translate(0 54.5)" fill="#E6AF78" figma:type="vector"/><use xlink:href="#c" transform="translate(20.937 54.51)" fill="#D29B6E" figma:type="vector"/><use xlink:href="#d" transform="translate(0 63.97)" fill="#E4EAF6" figma:type="vector"/><g figma:type="frame" fill="#D7DEED"><use xlink:href="#e" transform="translate(0 68.56)" figma:type="vector"/><use xlink:href="#f" transform="translate(57.243 68.56)" figma:type="vector"/><use xlink:href="#g" transform="translate(14.685 63.97)" figma:type="vector"/></g><use xlink:href="#h" transform="translate(9.532 33.58)" fill="#FF5050" figma:type="vector"/><use xlink:href="#i" transform="translate(12.721 33.56)" fill="#F00" figma:type="vector"/><use xlink:href="#j" transform="translate(54.468 33.58)" fill="#FF5050" figma:type="vector"/><use xlink:href="#k" transform="translate(54.45 33.56)" fill="#FF1515" figma:type="vector"/><use xlink:href="#l" transform="translate(14.306 19.17)" fill="#F0C087" figma:type="vector"/><use xlink:href="#m" transform="translate(14.306 19.17)" fill="#E6AF78" figma:type="vector"/><use xlink:href="#n" transform="translate(12.721 17.58)" fill="#5A4146" figma:type="vector"/><use xlink:href="#o" transform="translate(38.775 46.19)" fill="#F33" figma:type="vector"/><use xlink:href="#p" transform="translate(33.405 51.15)" fill="#5B5D6E" figma:type="vector"/></g></g><defs><path id="a" d="M60.432 57.127c.018 1.267-.738 2.407-1.892 2.95-7.207 3.367-17.243 5.449-28.324 5.449-11.08 0-21.117-2.1-28.324-5.467A3.263 3.263 0 0 1 0 57.11C.234 26.627 5.784 0 30.216 0 54.65 0 60.198 26.627 60.432 57.127z"/><path id="b" d="M46.126 5.54V0h-22.27v5.54c0 1.478-1.316 2.789-3.261 3.256L5.44 12.428C2.198 13.22 0 15.412 0 17.877v7.33c0 1.271 1.423 2.296 3.19 2.296h63.62c1.767 0 3.19-1.025 3.19-2.296v-7.33c0-2.465-2.198-4.657-5.441-5.436L49.405 8.81c-1.964-.467-3.279-1.79-3.279-3.27z"/><path id="c" d="M2.919 5.527c0 1.388-1.171 2.62-2.919 3.152 17.838 2.192 25.19-6.967 25.19-6.967V0H2.918v5.527z"/><path id="d" d="M64.54 2.97L52.162 0C46.27 5.76 39.387 8.977 34.991 10.002 30.595 8.977 23.711 5.76 17.82 0L5.44 2.97C2.198 3.75 0 5.943 0 8.408v7.33c0 1.27 1.423 2.296 3.19 2.296h63.62c1.767 0 3.19-1.025 3.19-2.297v-7.33c-.018-2.464-2.198-4.657-5.46-5.435z"/><path id="e" d="M10.865 6.357L2.036 0C.756 1.038 0 2.374 0 3.814v7.33c0 1.271 1.423 2.296 3.19 2.296h9.549V9.613c-.018-1.232-.685-2.4-1.874-3.256z"/><path id="f" d="M1.874 6.357L10.703 0c1.279 1.025 2.036 2.361 2.036 3.801v7.33c0 1.271-1.424 2.296-3.19 2.296H0V9.6c.018-1.22.685-2.387 1.874-3.243z"/><path id="g" d="M.577 1.362c6.396 6.24 13.873 9.678 18.738 10.82l.991.233.991-.233c4.865-1.142 12.36-4.58 18.739-10.82l.577-.61L37.477 0c-5.891 5.76-12.774 8.977-17.17 10.002C15.91 8.977 9.026 5.76 3.134 0L0 .752l.577.61z"/><path id="h" d="M5.045 0H3.189A3.19 3.19 0 0 0 0 3.204v6.3a3.203 3.203 0 0 0 3.243 3.203l2.739-.054L5.045 0z"/><path id="i" d="M.018 0S0 0 .018 0L0 12.707h.072l2.739-.054L1.856 0H.018z"/><path id="j" d="M.937 0h1.856a3.19 3.19 0 0 1 3.189 3.204v6.3a3.203 3.203 0 0 1-3.243 3.203L0 12.653.937 0z"/><path id="k" d="M2.793 0c.018 0 .018 0 0 0l.018 12.707h-.072L0 12.653.955 0h1.838z"/><path id="l" d="M0 0v6.897c0 2.86.108 5.72.324 8.58l.92 11.964a9.569 9.569 0 0 0 4.035 7.114l9.604 6.752a10.023 10.023 0 0 0 5.784 1.828c2.072 0 4.09-.634 5.784-1.828l9.603-6.752a9.569 9.569 0 0 0 4.036-7.114l.919-11.965c.216-2.86.324-5.72.324-8.58V0H0z"/><path id="m" d="M41.243 0H0v6.897c0 .886.036 1.773.054 2.66a95.28 95.28 0 0 0 .126 3.204c.054.905.09 1.81.162 2.715l.92 11.965a9.569 9.569 0 0 0 4.035 7.114l9.604 6.752a10.023 10.023 0 0 0 5.784 1.828c-2.559 0-5.352-4.417-7.117-7.765a15.94 15.94 0 0 1-1.82-7.15l-.27-14.463a2.303 2.303 0 0 1 1.927-2.317c8.523-1.484 15.298-3.91 19.172-5.63 3.063 5.105 7.117 6.625 7.64 6.807l.504.162h.468c.054-1.068.09-2.136.126-3.204L41.243 0z"/><path id="n" d="M0 0v11.187c18.847 0 33.19-6.59 35.586-8.056 2.576 6.444 7.243 8.056 7.243 8.056h1.712V0H0z"/><path id="o" d="M18.414.072l-2.72-.054C14.486 2.226 10.847 5.865 0 5.865v3.204C14.486 9.069 18.216 2.86 19.153 0c-.234.054-.486.09-.739.072z"/><path id="p" d="M3.964 4.779H2.378A2.382 2.382 0 0 1 0 2.389 2.382 2.382 0 0 1 2.378 0h1.586a2.382 2.382 0 0 1 2.378 2.39 2.37 2.37 0 0 1-2.378 2.389z"/></defs></svg>