<svg width="105" height="74" viewBox="0 0 105 74" xmlns="http://www.w3.org/2000/svg" xmlns:xlink="http://www.w3.org/1999/xlink" xmlns:figma="http://www.figma.com/figma/ns"><title>Тест аудишн</title><desc>Created using Figma</desc><g figma:type="canvas"><g figma:type="frame"><use xlink:href="#a" transform="matrix(-1 0 0 1 86.912 0)" fill="#EFF2FA" figma:type="vector"/><use xlink:href="#b" transform="matrix(-1 0 0 1 48.87 9.04)" fill="#FFD782" figma:type="vector"/><use xlink:href="#c" transform="matrix(-1 0 0 1 48.87 34.31)" fill="#FFC36E" figma:type="vector"/><use xlink:href="#d" transform="matrix(-1 0 0 1 34.392 34.31)" fill="#C3E678" figma:type="vector"/><use xlink:href="#e" transform="matrix(-1 0 0 1 34.392 48.75)" fill="#A5D76E" figma:type="vector"/><use xlink:href="#f" transform="matrix(-1 0 0 1 77.827 34.31)" fill="#B4E1FA" figma:type="vector"/><use xlink:href="#g" transform="matrix(-1 0 0 1 19.913 19.85)" fill="#9BE6D2" figma:type="vector"/><use xlink:href="#h" transform="matrix(-1 0 0 1 19.913 41.53)" fill="#78D2BE" figma:type="vector"/><use xlink:href="#i" transform="matrix(-1 0 0 1 63.349 27.07)" fill="#FF2C2C" figma:type="vector"/><use xlink:href="#j" transform="matrix(-1 0 0 1 63.349 45.15)" fill="#FF7182" figma:type="vector"/><use xlink:href="#k" transform="matrix(-1 0 0 1 77.827 48.75)" fill="#A0D2F0" figma:type="vector"/><use xlink:href="#l" transform="matrix(-1 0 0 1 83.262 54.17)" fill="#D7DEED" figma:type="vector"/><use xlink:href="#m" transform="matrix(-1 0 0 1 90.788 54)" fill="#E6AF78" figma:type="vector"/><use xlink:href="#n" transform="matrix(-1 0 0 1 105 59.71)" fill="#B4E1FA" figma:type="vector"/><use xlink:href="#o" transform="matrix(-1 0 0 1 90.788 54)" fill="#D29B6E" figma:type="vector"/><use xlink:href="#p" transform="matrix(-1 0 0 1 94.131 34.84)" fill="#F0C087" figma:type="vector"/><use xlink:href="#q" transform="matrix(-1 0 0 1 94.131 34.84)" fill="#E6AF78" figma:type="vector"/><g figma:type="frame" fill="#A0D2F0"><use xlink:href="#r" transform="matrix(-1 0 0 1 69.05 63.76)" figma:type="vector"/><use xlink:href="#s" transform="matrix(-1 0 0 1 105 63.76)" figma:type="vector"/></g><use xlink:href="#t" transform="matrix(-1 0 0 1 85.374 66.52)" fill="#5B5D6E" figma:type="vector"/><use xlink:href="#u" transform="matrix(-1 0 0 1 85.374 64.84)" fill="#515262" figma:type="vector"/><g figma:type="frame" fill="#A0D2F0"><use xlink:href="#v" transform="matrix(-1 0 0 1 93.311 57.77)" figma:type="vector"/><use xlink:href="#w" transform="matrix(-1 0 0 1 83.262 57.77)" figma:type="vector"/></g><use xlink:href="#x" transform="matrix(-1 0 0 1 78.217 28.81)" fill="#785550" figma:type="vector"/><use xlink:href="#y" transform="matrix(-1 0 0 1 74.23 43.19)" fill="#F0C087" figma:type="vector"/><use xlink:href="#z" transform="matrix(-1 0 0 1 96.727 25.68)" fill="#694B4B" figma:type="vector"/><use xlink:href="#A" transform="matrix(-1 0 0 1 96.727 28.67)" fill="#5A4146" figma:type="vector"/><use xlink:href="#B" transform="matrix(-1 0 0 1 95.808 43.19)" fill="#E6AF78" figma:type="vector"/><use xlink:href="#C" transform="matrix(-1 0 0 1 79.099 72.34)" fill="#A0D2F0" figma:type="vector"/></g></g><defs><path id="a" d="M3.63 64.983h79.652c2.01 0 3.63-1.616 3.63-3.62V3.62a3.618 3.618 0 0 0-3.63-3.619H3.63A3.618 3.618 0 0 0 0 3.62v57.764a3.64 3.64 0 0 0 3.63 3.599z"/><path id="b" d="M9.044 46.927h-7.24A1.805 1.805 0 0 1 0 45.127V1.8C0 .797.82 0 1.805 0h7.239c1.005 0 1.805.818 1.805 1.8v43.328c0 .981-.8 1.8-1.805 1.8z"/><path id="c" d="M9.044 21.654h-7.24A1.805 1.805 0 0 1 0 19.854V1.8C0 .797.82 0 1.805 0h7.239c1.005 0 1.805.818 1.805 1.8v18.055c0 .981-.8 1.8-1.805 1.8z"/><path id="d" d="M9.044 21.654h-7.24A1.805 1.805 0 0 1 0 19.854V1.8C0 .797.82 0 1.805 0h7.239c1.005 0 1.805.818 1.805 1.8v18.055c0 .981-.8 1.8-1.805 1.8z"/><path id="e" d="M9.044 7.218h-7.24A1.805 1.805 0 0 1 0 5.418V1.8C0 .797.82 0 1.805 0h7.239c1.005 0 1.805.818 1.805 1.8v3.619c0 .981-.8 1.799-1.805 1.799z"/><path id="f" d="M9.044 21.654h-7.24A1.805 1.805 0 0 1 0 19.854V1.8C0 .797.82 0 1.805 0h7.239c1.005 0 1.805.818 1.805 1.8v18.055c0 .981-.82 1.8-1.805 1.8z"/><path id="g" d="M9.044 36.11h-7.24A1.805 1.805 0 0 1 0 34.312V1.8C0 .797.82 0 1.805 0h7.239c1.005 0 1.805.818 1.805 1.8v32.49c.02 1.003-.8 1.82-1.805 1.82z"/><path id="h" d="M9.044 14.436h-7.24A1.805 1.805 0 0 1 0 12.636V1.8C0 .797.82 0 1.805 0h7.239c1.005 0 1.805.818 1.805 1.8v10.837c.02.981-.8 1.799-1.805 1.799z"/><path id="i" d="M9.044 28.892h-7.24A1.805 1.805 0 0 1 0 27.093V1.8C0 .797.82 0 1.805 0h7.239c1.005 0 1.805.818 1.805 1.8v25.273c0 1.002-.82 1.82-1.805 1.82z"/><path id="j" d="M9.044 10.817h-7.24A1.805 1.805 0 0 1 0 9.017V1.8C0 .797.82 0 1.805 0h7.239c1.005 0 1.805.818 1.805 1.8v7.217c0 .982-.82 1.8-1.805 1.8z"/><path id="k" d="M9.044 7.218h-7.24A1.805 1.805 0 0 1 0 5.418V1.8C0 .797.82 0 1.805 0h7.239c1.005 0 1.805.818 1.805 1.8v3.619c0 .981-.82 1.799-1.805 1.799z"/><path id="l" d="M77.827 3.599H1.805A1.805 1.805 0 0 1 0 1.799C0 .797.82 0 1.805 0h76.043c1.005 0 1.804.818 1.804 1.8-.02.98-.82 1.799-1.825 1.799z"/><path id="m" d="M15.032 5.848V0H0v5.848l7.506 6.666 7.526-6.666z"/><path id="n" d="M40.872 2.863L30.536.429a1.37 1.37 0 0 1-.43-.184l-8.368 4.867L13.7 0a1.533 1.533 0 0 1-.759.409L2.584 2.863A3.329 3.329 0 0 0 0 6.113v6.524c0 .92.738 1.656 1.661 1.656h40.113c.923 0 1.661-.736 1.661-1.656V6.114a3.29 3.29 0 0 0-2.563-3.251z"/><path id="o" d="M0 0v6.155c9.475 3.394 15.032-5.112 15.032-5.112V0H0z"/><path id="p" d="M0 0l.738 15.97a4.902 4.902 0 0 0 2.01 3.762l3.445 2.576a4.99 4.99 0 0 0 3.015 1.002h3.343a5.035 5.035 0 0 0 3.014-1.002l3.446-2.576a5.063 5.063 0 0 0 2.01-3.762L21.737 0H0z"/><path id="q" d="M8.347 3.333c3.343 0 8.346-.838 9.536-3.333H0l.718 15.97a4.902 4.902 0 0 0 2.01 3.762l3.445 2.576a4.99 4.99 0 0 0 3.014 1.002h1.662c-1.662 0-5.004-3.333-5.004-7.504V5.807c0-.797.84-2.474 2.502-2.474z"/><path id="r" d="M1.375 4.846L6.789 0c.45.573.717 1.288.717 2.065v6.523c0 .92-.738 1.656-1.66 1.656H0v-2.31c-.02-1.166.492-2.29 1.374-3.088z"/><path id="s" d="M6.132 4.846L.718 0A3.322 3.322 0 0 0 0 2.065v6.523c0 .92.738 1.656 1.661 1.656h5.845v-2.31c.02-1.166-.492-2.29-1.374-3.088z"/><path id="t" d="M4.184 7.484H0L.533 0h3.138l.513 7.484z"/><path id="u" d="M4.184 0H0v.49c0 1.125.902 2.025 2.03 2.025h.123c1.128 0 2.03-.9 2.03-2.024V0z"/><path id="v" d="M2.4.217l7.628 6.85S7.896 8.15 5.25 10.317c-.554.45-1.374.267-1.661-.367L0 2.078 1.128.38c.308-.429.882-.51 1.271-.163z"/><path id="w" d="M7.629.217L0 7.067s2.133 1.083 4.778 3.25c.554.45 1.374.267 1.661-.367l3.59-7.872L8.9.38c-.307-.429-.902-.51-1.27-.163z"/><path id="x" d="M0 .512l.78 5.52c3.568.717 4.08 6.299 4.162 7.914.02.286.103.573.267.818l1.374 2.106s-.472-3.496 1.661-5.827c.02 0 .738-13.843-8.244-10.53z"/><path id="y" d="M3.437 2.147l-.943 3.762c-.103.45-.513.757-.984.757a1 1 0 0 1-1.005-.88L.013 1.944A1.738 1.738 0 0 1 1.735 0a1.73 1.73 0 0 1 1.702 2.147z"/><path id="z" d="M3.396 2.15l1.23.839C-.95 7.099.075 14.153.075 14.153c1.661 1.656 1.661 5.827 1.661 5.827l1.661-1.656s-.635-4.805 2.502-6.666c2.933-1.717 5.476-.838 8.1-.838 6.994 0 8.963-2.638 8.614-5.828-.184-1.656-2.707-5.112-9.187-4.989C10.84.044 5.939.842 3.396 2.15z"/><path id="A" d="M2.904 7.116S2.022 3.619 4.627 0C-.951 4.11.074 11.164.074 11.164c1.661 1.657 1.661 5.828 1.661 5.828l1.661-1.656S2.761 10.53 5.898 8.67c2.933-1.718 5.476-.839 8.1-.839 1.129 0 2.134-.081 3.016-.204-5.373.204-8.532-3.865-14.11-.511z"/><path id="B" d="M.057 2.147L1 5.909c.103.45.513.757.984.757a1 1 0 0 0 1.005-.88l.492-3.843A1.738 1.738 0 0 0 1.76 0C.61 0-.231 1.043.057 2.147z"/><path id="C" d="M5.845 0H1.66C.738 0 0 .736 0 1.656h7.526C7.526.736 6.768 0 5.845 0z"/></defs></svg>