<svg width="80" height="79" viewBox="0 0 80 79" xmlns="http://www.w3.org/2000/svg" xmlns:xlink="http://www.w3.org/1999/xlink" xmlns:figma="http://www.figma.com/figma/ns"><title>интенсивы</title><desc>Created using Figma</desc><g figma:type="canvas"><g figma:type="frame"><g figma:type="frame" fill="#E6E9ED"><use xlink:href="#a" transform="translate(1.828 54.23)" figma:type="vector"/><use xlink:href="#b" transform="translate(9.641 38.25)" figma:type="vector"/></g><use xlink:href="#c" transform="translate(38.304)" fill="#434A54" figma:type="vector"/><g figma:type="frame" fill="#CCD1D9"><use xlink:href="#d" transform="translate(10 63.9)" figma:type="vector"/><use xlink:href="#e" transform="translate(58.328 58.87)" figma:type="vector"/><use xlink:href="#f" transform="translate(26.656 63.9)" figma:type="vector"/><use xlink:href="#g" transform="translate(68.328 68.93)" figma:type="vector"/><use xlink:href="#h" transform="translate(26.672 42.09)" figma:type="vector"/><use xlink:href="#i" transform="translate(64.984 42.1)" figma:type="vector"/></g><use xlink:href="#j" transform="translate(23.125 5.19)" fill="#F33" figma:type="vector"/><g opacity=".2" figma:type="frame" fill="#FFF"><use xlink:href="#k" transform="translate(35.984 34.84)" opacity=".2" figma:type="vector"/><use xlink:href="#l" transform="translate(42.344 5.19)" opacity=".2" figma:type="vector"/></g><use xlink:href="#m" transform="translate(6.672 35.37)" fill="#5D9CEC" figma:type="vector"/><use xlink:href="#n" transform="translate(0 52.15)" fill="#F33" figma:type="vector"/><use xlink:href="#o" transform="translate(11.672 65.58)" fill="#ED5564" figma:type="vector"/></g></g><defs><path id="a" d="M10.563 0H76.5v22.852H10.562l-7.921-3.947L0 9.673l4.11-7.015L10.561 0z"/><path id="b" d="M63.688 0H0v11.324h63.688V0z"/><path id="c" d="M7.212 1.683A1.68 1.68 0 0 0 5.54 0c-.203 0-.375.031-.547.094C3.071.692-.319 3.098.024 8.21c.063.88.797 1.573 1.657 1.573h.109A1.672 1.672 0 0 0 3.337 7.99c-.25-3.68 2.375-4.609 2.672-4.703h-.016a1.664 1.664 0 0 0 1.219-1.604z"/><path id="d" d="M11.672 3.366h-10A1.68 1.68 0 0 1 0 1.683C0 .755.75 0 1.672 0h10a1.68 1.68 0 0 1 1.672 1.683 1.69 1.69 0 0 1-1.672 1.683z"/><path id="e" d="M1.672 0A1.68 1.68 0 0 0 0 1.683c0 .928.75 1.683 1.672 1.683H20V.016H1.672V0z"/><path id="f" d="M25 3.366H1.672A1.68 1.68 0 0 1 0 1.683C0 .755.75 0 1.672 0H25a1.68 1.68 0 0 1 1.672 1.683A1.68 1.68 0 0 1 25 3.366z"/><path id="g" d="M1.672 0A1.68 1.68 0 0 0 0 1.683c0 .928.75 1.683 1.672 1.683H10V.016H1.672V0z"/><path id="h" d="M15 3.366H1.672A1.68 1.68 0 0 1 0 1.683C0 .755.75 0 1.672 0H15a1.68 1.68 0 0 1 1.672 1.683A1.69 1.69 0 0 1 15 3.366z"/><path id="i" d="M1.672 0A1.68 1.68 0 0 0 0 1.683c0 .928.75 1.683 1.672 1.683h6.672V.016H1.672V0z"/><path id="j" d="M30.734 4.246C28.641 1.51 25.61 0 22.187 0c-1.703 0-3.484.362-5.312 1.1C15.047.378 13.265 0 11.562 0 8.156 0 5.125 1.51 3.017 4.23 1.062 6.764 0 10.287 0 14.124c0 3.964 1.516 8.022 4.156 11.12 2.672 3.145 6.14 4.938 9.532 4.938a9.57 9.57 0 0 0 3.187-.55 9.125 9.125 0 0 0 3.188.55c3.39 0 6.859-1.808 9.53-4.938 2.641-3.114 4.157-7.172 4.157-11.12 0-3.837-1.078-7.344-3.016-9.877z"/><path id="k" d="M2.344 0A8.704 8.704 0 0 1 0 .519C.281.55.547.55.828.55c.797 0 1.594-.094 2.344-.298C2.906.173 2.625.094 2.344 0z"/><path id="l" d="M11.516 4.246C9.422 1.51 6.39 0 2.969 0c-.281 0-.563.016-.844.031 3.078.22 5.797 1.699 7.719 4.215 1.953 2.533 3.015 6.056 3.015 9.893 0 3.963-1.515 8.021-4.156 11.12C6.25 28.137 3.125 29.899 0 30.166c.281.031.547.031.828.031 3.39 0 6.86-1.809 9.531-4.938 2.641-3.114 4.157-7.172 4.157-11.12.015-3.853-1.063-7.36-3-9.893z"/><path id="m" d="M66.656 13.431H8.328c-2.765 0-5-2.249-5-5.032 0-2.768 2.235-5.033 5-5.033h58.344a1.68 1.68 0 0 0 1.672-1.683A1.68 1.68 0 0 0 66.672 0H8.328C3.734 0 0 3.759 0 8.383c0 4.624 3.734 8.383 8.328 8.383h58.328a1.68 1.68 0 0 0 1.672-1.683c0-.928-.75-1.652-1.672-1.652z"/><path id="n" d="M78.328 23.497h-65c-5.515 0-10-4.514-10-10.066 0-5.551 4.485-10.065 10-10.065h65A1.68 1.68 0 0 0 80 1.683 1.68 1.68 0 0 0 78.328 0h-65C5.984.016 0 6.04 0 13.431c0 7.392 5.984 13.416 13.328 13.416h65A1.68 1.68 0 0 0 80 25.164c0-.928-.75-1.667-1.672-1.667z"/><path id="o" d="M0 0v5.033c0 .582.297 1.117.797 1.431.484.299 1.11.33 1.625.079l2.594-1.306 2.593 1.306c.235.126.485.173.75.173.313 0 .61-.079.875-.252.5-.314.797-.85.797-1.431V0H0z"/></defs></svg>