<svg width="82" height="82" viewBox="0 0 82 82" xmlns="http://www.w3.org/2000/svg" xmlns:xlink="http://www.w3.org/1999/xlink" xmlns:figma="http://www.figma.com/figma/ns"><title>Индивидуальные занятия</title><desc>Created using Figma</desc><g figma:type="canvas"><g figma:type="frame"><g figma:type="frame" fill="#F33"><use xlink:href="#a" transform="translate(12.629 8.48)" figma:type="vector"/><use xlink:href="#b" transform="translate(8.485 39.58)" figma:type="vector"/></g><use xlink:href="#c" transform="translate(61.044 67.62)" fill="#E6AF78" figma:type="vector"/><use xlink:href="#d" transform="translate(50.894 71.71)" fill="#EFF2FA" figma:type="vector"/><use xlink:href="#e" transform="translate(61.044 67.62)" fill="#D29B6E" figma:type="vector"/><use xlink:href="#f" transform="translate(58.642 53.87)" fill="#F0C087" figma:type="vector"/><use xlink:href="#g" transform="translate(58.658 53.87)" fill="#E6AF78" figma:type="vector"/><g figma:type="frame" fill="#E4EAF6"><use xlink:href="#h" transform="translate(76.589 74.62)" figma:type="vector"/><use xlink:href="#i" transform="translate(50.878 74.6)" figma:type="vector"/></g><use xlink:href="#j" transform="translate(64.934 76.59)" fill="#5B5D6E" figma:type="vector"/><use xlink:href="#k" transform="translate(64.918 75.39)" fill="#515262" figma:type="vector"/><g figma:type="frame" fill="#E4EAF6"><use xlink:href="#l" transform="translate(59.251 70.32)" figma:type="vector"/><use xlink:href="#m" transform="translate(66.423 70.32)" figma:type="vector"/></g><use xlink:href="#n" transform="translate(70.041 49.53)" fill="#785550" figma:type="vector"/><use xlink:href="#o" transform="translate(72.896 59.84)" fill="#F0C087" figma:type="vector"/><use xlink:href="#p" transform="translate(56.793 47.29)" fill="#694B4B" figma:type="vector"/><use xlink:href="#q" transform="translate(56.793 49.44)" fill="#5A4146" figma:type="vector"/><use xlink:href="#r" transform="translate(57.453 59.84)" fill="#E6AF78" figma:type="vector"/><use xlink:href="#s" transform="translate(69.417 80.77)" fill="#E4EAF6" figma:type="vector"/><use xlink:href="#t" transform="translate(2.176)" fill="#694B4B" figma:type="vector"/><use xlink:href="#u" transform="translate(2.176 .03)" fill="#5A4146" figma:type="vector"/><use xlink:href="#v" transform="translate(5.507)" fill="#694B4B" figma:type="vector"/><use xlink:href="#w" transform="translate(16.82 .8)" fill="#785550" figma:type="vector"/><use xlink:href="#x" transform="translate(0 21.13)" fill="#E6AF78" figma:type="vector"/><use xlink:href="#y" transform="translate(0 24.41)" fill="#EFF2FA" figma:type="vector"/><use xlink:href="#z" transform="translate(7.012 21.13)" fill="#D29B6E" figma:type="vector"/><g figma:type="frame" fill="#E4EAF6"><use xlink:href="#A" transform="translate(0 27.62)" figma:type="vector"/><use xlink:href="#B" transform="translate(20.94 27.63)" figma:type="vector"/><use xlink:href="#C" transform="translate(11.975 26.54)" figma:type="vector"/><use xlink:href="#D" transform="translate(6.724 23.19)" figma:type="vector"/><use xlink:href="#E" transform="translate(12.711 23.19)" figma:type="vector"/></g><use xlink:href="#F" transform="translate(5.379 6.74)" fill="#F0C087" figma:type="vector"/><use xlink:href="#G" transform="translate(5.379 6.69)" fill="#E6AF78" figma:type="vector"/><use xlink:href="#H" transform="translate(14.969 32.18)" fill="#E4EAF6" figma:type="vector"/><g figma:type="frame" fill="#F33"><use xlink:href="#I" transform="translate(2.826 36.75)" figma:type="vector"/><use xlink:href="#J" transform="translate(65.022 36.75)" figma:type="vector"/></g></g></g><defs><path id="a" d="M59.445 33.908a1.41 1.41 0 0 1-1.409-1.409c0-16.362-13.32-29.681-29.681-29.681-10.566 0-20.412 5.683-25.711 14.84a1.413 1.413 0 0 1-1.937.513 1.41 1.41 0 0 1-.512-1.938C6.005 6.228 16.78 0 28.355 0c17.93 0 32.499 14.585 32.499 32.499a1.4 1.4 0 0 1-1.409 1.409z"/><path id="b" d="M32.499 33.908C14.569 33.908 0 19.339 0 1.408 0 .625.64 0 1.409 0c.768 0 1.409.64 1.409 1.409 0 16.361 13.32 29.681 29.681 29.681 8.197 0 16.121-3.442 21.709-9.445a1.402 1.402 0 0 1 2-.064 1.4 1.4 0 0 1 .065 2 32.637 32.637 0 0 1-23.774 10.327z"/><path id="c" d="M10.758 4.178V0H0v4.178l5.38 4.787 5.378-4.787z"/><path id="d" d="M29.233 2.05L21.837.303a1.023 1.023 0 0 1-.304-.128l-5.988 3.49L9.782 0a1.12 1.12 0 0 1-.545.288L1.841 2.033A2.396 2.396 0 0 0 0 4.355v4.69a1.2 1.2 0 0 0 1.2 1.201h28.706a1.2 1.2 0 0 0 1.2-1.2V4.354a2.457 2.457 0 0 0-1.873-2.306z"/><path id="e" d="M0 0v4.419C6.772 6.868 10.758.752 10.758.752V0H0z"/><path id="f" d="M0 0l.528 11.463a3.597 3.597 0 0 0 1.425 2.705l2.466 1.857c.624.465 1.376.72 2.145.72h2.385c.769 0 1.537-.255 2.146-.72l2.465-1.857a3.547 3.547 0 0 0 1.425-2.705L15.513 0H0z"/><path id="g" d="M5.971 2.385c2.386 0 5.972-.592 6.836-2.385H0l.528 11.463a3.597 3.597 0 0 0 1.425 2.705l2.466 1.857c.624.465 1.376.72 2.145.72h1.2c-1.2 0-3.586-2.385-3.586-5.378V4.194c0-.608.593-1.809 1.793-1.809z"/><path id="h" d="M.993 3.474L4.867 0c.32.416.512.929.512 1.489v4.69a1.2 1.2 0 0 1-1.2 1.201H0V5.731c0-.88.352-1.697.993-2.257z"/><path id="i" d="M4.387 3.49L.512 0A2.43 2.43 0 0 0 0 1.489v4.69A1.2 1.2 0 0 0 1.2 7.38h4.18V5.731c0-.864-.353-1.68-.993-2.241z"/><path id="j" d="M2.978 5.38H0L.368 0H2.61l.368 5.38z"/><path id="k" d="M2.994 0H0v.432a1.36 1.36 0 0 0 1.36 1.361h.273a1.36 1.36 0 0 0 1.36-1.36V0z"/><path id="l" d="M1.713.152l5.46 4.915s-1.538.769-3.427 2.338a.763.763 0 0 1-1.184-.272L0 1.48.816.265c.193-.305.625-.353.897-.113z"/><path id="m" d="M5.46.152L0 5.067s1.537.769 3.426 2.338a.763.763 0 0 0 1.185-.272L7.172 1.48 6.356.265C6.164-.04 5.73-.088 5.459.152z"/><path id="n" d="M0 .37l.56 3.954c2.562.512 2.93 4.53 2.978 5.667.016.208.08.417.192.577l.977 1.52s-.336-2.497 1.2-4.178c0 .016.529-9.926-5.907-7.54z"/><path id="o" d="M2.46 1.537l-.672 2.705a.721.721 0 0 1-.705.545.726.726 0 0 1-.72-.625L.01 1.392A1.237 1.237 0 0 1 1.243 0C2.06 0 2.652.752 2.46 1.537z"/><path id="p" d="M2.426 1.539l.88.608c-4.002 2.946-3.25 8.02-3.25 8.02 1.2 1.201 1.2 4.18 1.2 4.18l1.202-1.201S1.993 9.688 4.25 8.359c2.097-1.233 3.922-.593 5.795-.593 5.011 0 6.404-1.889 6.164-4.178-.128-1.185-1.938-3.666-6.58-3.586-1.873.032-5.38.592-7.204 1.537z"/><path id="q" d="M2.073 5.107S1.433 2.61 3.306 0C-.696 2.946.056 8.02.056 8.02c1.2 1.201 1.2 4.18 1.2 4.18l1.202-1.202S1.993 7.54 4.25 6.212c2.097-1.233 3.922-.593 5.795-.593.817 0 1.52-.048 2.161-.144-3.874.128-6.147-2.785-10.134-.368z"/><path id="r" d="M.036 1.537L.71 4.242c.08.32.368.545.704.545a.726.726 0 0 0 .72-.625l.353-2.77A1.237 1.237 0 0 0 1.253 0C.437 0-.156.752.036 1.537z"/><path id="s" d="M4.29 0h-3.2A1.08 1.08 0 0 0 0 1.089V1.2h5.38v-.112A1.1 1.1 0 0 0 4.29 0z"/><path id="t" d="M10.536 0C-1.295 0 .018 14.408.066 24.83c0 .4.208.753.544.961 1.313.785 4.915 2.642 9.926 2.642 5.01 0 8.613-1.857 9.926-2.642.336-.208.544-.56.544-.96C21.07 14.408 22.383 0 10.536 0z"/><path id="u" d="M9.783 0C-1.232.608.017 14.6.065 24.799c0 .4.208.752.545.96 1.312.785 4.914 2.642 9.925 2.642L13.53 7.444"/><path id="v" d="M7.204 0C.464 0 0 8.133 0 8.133c3.874-.657 6.26.976 10.198-.657L7.204 28.433c5.011 0 8.613-1.857 9.926-2.642.336-.208.544-.56.544-.96C17.738 14.408 19.051 0 7.204 0z"/><path id="w" d="M6.378 24.03C6.426 15.065 7.386 3.17.15 0 .022.656-.202 2.481.39 3.682c1.49 2.994 2.994 2.994 4.483 5.235 1.489 8.229-2.866 16.97-4.307 18.155 2.562-.608 4.403-1.57 5.251-2.097a1.06 1.06 0 0 0 .56-.945z"/><path id="x" d="M24.062 5.971l-6.676-2.785a1.514 1.514 0 0 1-.928-1.377V0H8.98v1.81a1.48 1.48 0 0 1-.928 1.376L1.377 5.97A2.251 2.251 0 0 0 0 8.037v3.01c0 .832.672 1.488 1.489 1.488h22.445c.832 0 1.489-.672 1.489-1.489V8.053a2.218 2.218 0 0 0-1.36-2.082z"/><path id="y" d="M24.062 2.69L17.61 0l-4.883 2.113L7.845 0 1.377 2.69A2.251 2.251 0 0 0 0 4.755v3.01c0 .832.672 1.488 1.489 1.488h22.445c.832 0 1.489-.672 1.489-1.488V4.77a2.218 2.218 0 0 0-1.36-2.081z"/><path id="z" d="M9.446 0H1.969v1.81a1.48 1.48 0 0 1-.928 1.376L0 3.618C7.989 5.668 9.446 0 9.446 0z"/><path id="A" d="M3.65 2.385L.64 0C.24.416 0 .96 0 1.569v2.994c0 .832.672 1.489 1.489 1.489h2.994V4.13a2.26 2.26 0 0 0-.833-1.745z"/><path id="B" d="M4.499 4.547V1.553C4.499.96 4.259.4 3.859 0L.848 2.385A2.272 2.272 0 0 0 0 4.13v1.922h2.994c.832-.016 1.505-.689 1.505-1.505z"/><path id="C" d="M.784 5.635h-.08A.71.71 0 0 1 0 4.931V0h1.489v4.93a.71.71 0 0 1-.705.705z"/><path id="D" d="M5.987 3.34L1.713.122a.604.604 0 0 0-.865.144L0 1.531l2.626 3.682a.598.598 0 0 0 .864.112L5.987 3.34z"/><path id="E" d="M0 3.34L4.274.122a.604.604 0 0 1 .865.144l.848 1.265-2.625 3.682a.598.598 0 0 1-.865.112L0 3.34z"/><path id="F" d="M11.079 0C7.332 3.746 0 .752 0 6.74l.464 4.402a2.98 2.98 0 0 0 1.521 2.338l4.259 2.37a2.2 2.2 0 0 0 2.177 0l4.258-2.37a2.967 2.967 0 0 0 1.521-2.338l.545-5.235a8.73 8.73 0 0 0 .032-1.12C14.505 2.882 11.83 1.489 11.079 0z"/><path id="G" d="M0 6.772l.464 4.402a2.98 2.98 0 0 0 1.521 2.338l4.259 2.37a2.191 2.191 0 0 0 1.52.223S5.62 15.45 4.34 11.991c-.385-1.057-.929-6.676-.465-7.364.929-1.361 6.084-1.49 7.605-4.019a3.248 3.248 0 0 1-.21-.288l-.016-.016A1.885 1.885 0 0 1 11.078 0C7.332 3.778 0 .784 0 6.772z"/><path id="H" d="M3.074 0H1.409A1.41 1.41 0 0 0 0 1.409v.08h4.483v-.08A1.4 1.4 0 0 0 3.073 0z"/><path id="I" d="M12.72 8.477c-.369 0-.721-.144-.993-.416L7.068 3.402 2.41 8.061a1.43 1.43 0 0 1-2 0 1.43 1.43 0 0 1 0-2.001L6.058.408a1.43 1.43 0 0 1 2.002 0l5.651 5.652a1.43 1.43 0 0 1 0 2 1.394 1.394 0 0 1-.993.417z"/><path id="J" d="M7.052 8.477c-.368 0-.72-.144-.992-.416L.408 2.409a1.43 1.43 0 0 1 0-2 1.43 1.43 0 0 1 2.001 0l4.66 4.658L11.726.408a1.43 1.43 0 0 1 2.001 0 1.43 1.43 0 0 1 0 2.001l-5.65 5.652c-.304.272-.657.416-1.025.416z"/></defs></svg>