<svg width="123" height="75" viewBox="0 0 123 75" xmlns="http://www.w3.org/2000/svg" xmlns:xlink="http://www.w3.org/1999/xlink" xmlns:figma="http://www.figma.com/figma/ns"><title>Holdem Manager 2</title><desc>Created using Figma</desc><g figma:type="canvas"><g figma:type="frame"><use xlink:href="#a" transform="translate(0 66.56)" fill="#CCC" figma:type="vector"/><use xlink:href="#b" transform="translate(44.644 66.56)" fill="#666" figma:type="vector"/><use xlink:href="#c" transform="translate(9.66)" fill="#CCC" figma:type="vector"/><use xlink:href="#d" transform="translate(14.299 4.41)" fill="#FFF" figma:type="vector"/><use xlink:href="#e" transform="translate(20.685 11.29)" fill="#ECF0F1" figma:type="vector"/><use xlink:href="#f" transform="translate(78.452 23.89)" fill="#C3CCCF" figma:type="vector"/><use xlink:href="#g" transform="translate(78.452 11.29)" fill="#C3CCCF" figma:type="vector"/><use xlink:href="#h" transform="translate(78.452 36.45)" fill="#C3CCCF" figma:type="vector"/><use xlink:href="#i" transform="translate(83.218 13.23)" fill="#FFF" figma:type="vector"/><use xlink:href="#j" transform="translate(83.218 25.79)" fill="#FFF" figma:type="vector"/><use xlink:href="#k" transform="translate(83.218 38.39)" fill="#FFF" figma:type="vector"/><use xlink:href="#l" transform="translate(14.299 4.41)" fill="#F33" figma:type="vector"/><use xlink:href="#m" transform="translate(41.275 29.98)" fill="#F0B97D" figma:type="vector"/><use xlink:href="#n" transform="translate(37.399 36.23)" fill="#F1F1F1" figma:type="vector"/><use xlink:href="#o" transform="translate(46.391 38.23)" fill="#FF5B61" figma:type="vector"/><use xlink:href="#p" transform="translate(31.489 36.2)" fill="#15BDB1" figma:type="vector"/><use xlink:href="#q" transform="translate(40.259 36.2)" fill="#20D0C2" figma:type="vector"/><use xlink:href="#r" transform="translate(39.302 13.74)" fill="#FED198" figma:type="vector"/><use xlink:href="#s" transform="translate(39.889 11.95)" fill="#666" figma:type="vector"/><use xlink:href="#t" transform="translate(42.483 34.39)" fill="#FFF" figma:type="vector"/><use xlink:href="#u" transform="translate(47.567 34.39)" fill="#FFF" figma:type="vector"/><use xlink:href="#v" transform="translate(44.254 29.44)" fill="#666" figma:type="vector"/><use xlink:href="#w" transform="translate(20.685 45.59)" fill="#FBB429" figma:type="vector"/><use xlink:href="#x" transform="translate(14.998 41.12)" fill="#ECF0F1" figma:type="vector"/><use xlink:href="#y" transform="translate(15.379 41.5)" fill="#F33" figma:type="vector"/><use xlink:href="#z" transform="translate(18.684 43.62)" fill="#FFF" figma:type="vector"/><use xlink:href="#A" transform="translate(57.703 45.59)" fill="#C8CACC" figma:type="vector"/><use xlink:href="#B" transform="translate(29.36 52.25)" fill="#C8CACC" figma:type="vector"/><use xlink:href="#C" transform="translate(93.99 11.45)" fill="#C8CACC" figma:type="vector"/><use xlink:href="#D" transform="translate(93.99 23.48)" fill="#C8CACC" figma:type="vector"/><use xlink:href="#E" transform="translate(93.99 36.55)" fill="#C8CACC" figma:type="vector"/><use xlink:href="#f" transform="translate(78.452 48.95)" fill="#C3CCCF" figma:type="vector"/><use xlink:href="#F" transform="translate(83.218 50.86)" fill="#FFF" figma:type="vector"/><use xlink:href="#G" transform="translate(93.99 49.02)" fill="#C8CACC" figma:type="vector"/><use xlink:href="#H" transform="translate(23.895 4.41)" fill="#ECF0F1" figma:type="vector"/><use xlink:href="#I" transform="translate(22.846 65.13)" fill="#666" figma:type="vector"/></g></g><defs><path id="a" d="M0 0h123v4.22c0 2.316-1.906 4.22-4.226 4.22H4.226C1.906 8.44 0 6.535 0 4.22V0z"/><path id="b" d="M0 0h33.713v1.237a1.26 1.26 0 0 1-1.24 1.238H1.24A1.26 1.26 0 0 1 0 1.237V0z"/><path id="c" d="M2.192 0h99.265c1.207 0 2.192.984 2.192 2.19v60.722c0 1.206-.985 2.19-2.192 2.19H2.192A2.195 2.195 0 0 1 0 62.912V2.19C0 .984.985 0 2.192 0z"/><path id="d" d="M94.434 0H0v57.456h94.434V0z"/><path id="e" d="M53.795 0H0v34.264h53.795V0z"/><path id="f" d="M12.805 0H0v8.154h12.805V0z"/><path id="g" d="M12.805 0H0v8.154h12.805V0z"/><path id="h" d="M12.805 0H0v8.154h12.805V0z"/><path id="i" d="M0 0l3.273 2.157L0 4.315V0z"/><path id="j" d="M0 0l3.273 2.157L0 4.315V0z"/><path id="k" d="M0 0l3.273 2.157L0 4.315V0z"/><path id="l" d="M9.628 0H0v3.617h9.628V0z"/><path id="m" d="M3.241 0h6.133l.508 5.171.89.698 1.874 1.174-3.622 8.534H3.622L0 7.043 1.875 5.87l.89-.698L3.24 0z"/><path id="n" d="M5.084 0L0 1.618l5.592 7.71h8.389l4.893-8.186L15.284 0l-3.178 2.22H8.293L5.084 0z"/><path id="o" d="M.064.032L.508 1.11 0 7.36h2.383l-.477-6.25.445-1.078L1.207 0 .064.032z"/><path id="p" d="M11.09 0L2.096 2.855S.921 3.458.572 5.298C.318 6.568.159 7.836 0 9.36h14.235L11.09 0zm21.098 9.39c-.16-1.522-.318-2.791-.572-4.06-.35-1.84-1.525-2.443-1.525-2.443L21.13.063l-3.178 9.328h14.235z"/><path id="q" d="M2.32 0L.38.603 0 5.52s.095.413.413.381l1.748.666s.127.127 0 .254L.667 7.836l.795 1.523h3.971L2.32 0zm10.835 9.39l.794-1.522-1.493-1.015c-.096-.159 0-.254 0-.254l1.747-.666c.318.031.413-.381.413-.381l-.38-4.917L12.36.032 9.183 9.359l3.972.032z"/><path id="r" d="M1.115 5.71c0 .477-.19.952-.158 1.428-1.653-.317-.858 4.569.095 5.235.063.064.254-.063.413-.159.318 1.809 3.082 6.6 4.83 8.598.476.571 3.463.54 3.94.032 1.78-1.967 4.544-6.821 4.861-8.63.16.096.35.223.413.16.922-.667 1.716-5.553.096-5.236 0-.476-.16-.92-.16-1.427C15.352 1.904 11.92.03 8.298 0 4.674.032 1.21 1.935 1.115 5.71z"/><path id="s" d="M2.753 2.646C2.245 2.583.37 3.154.147 5.153-.075 7.12.02 8.96.02 8.96s1.112.285 1.24 1.396c.127 1.11.031 1.11.031 1.11l.382-.095.286-1.935c1.652-1.015 0-2.538 1.62-2.919C8.028 9.69 11.936 9.15 13.715 7.659c0 0-.413 1.555-.095 2.094.318.571.127 1.428.127 1.428l.413-.032s-.063-2.284.858-2.284c3.495-5.68-7.562-12.818-12.265-6.219z"/><path id="t" d="M1.493 0C1.621 0 0 1.84 0 1.84L1.398 6.6l3.718-2.792C3.05 2.824 1.843 1.523 1.493 0z"/><path id="u" d="M3.622 0c-.127 0 1.494 1.84 1.494 1.84L3.718 6.6 0 3.807C2.065 2.824 3.305 1.523 3.622 0z"/><path id="v" d="M1.31.698L2.328 0c.318.286 1.78.286 2.098 0l.953.698c.445.349.921.444 1.048.983l.382 1.682c.127.54-.922 2.284-1.494 2.284H1.28c-.572 0-1.366-1.681-1.271-2.22L.294 1.68c.063-.539.54-.666 1.017-.983zm1.748.38l-1.97 1.048s.096 1.142.35 1.522c.254.35 1.27-.063 1.27-.063s0-.888.287-.888h.667c.286 0 .286.888.286.888s1.017.412 1.27.063c.255-.349.35-1.522.35-1.522l-1.97-1.047-.254.063-.286-.063z"/><path id="w" d="M53.795 0H0v2.411h53.795V0z"/><path id="x" d="M5.688 0a5.678 5.678 0 0 1 5.687 5.679 5.678 5.678 0 0 1-5.687 5.679A5.678 5.678 0 0 1 0 5.678 5.678 5.678 0 0 1 5.688 0z"/><path id="y" d="M5.306 0c2.924 0 5.307 2.38 5.307 5.298 0 2.919-2.383 5.298-5.307 5.298C2.383 10.596 0 8.217 0 5.298A5.291 5.291 0 0 1 5.306 0z"/><path id="z" d="M0 0l4.798 3.173L0 6.345V0z"/><path id="A" d="M16.777 0H0v2.411h16.777V0z"/><path id="B" d="M0 0h38.066v1.206H0V0zm0 3.617h23.227v1.205H0V3.617z"/><path id="C" d="M0 0h11.344v1.206H0V0zm0 2.602h6.927v1.205H0V2.602z"/><path id="D" d="M0 0h11.344v1.206H0V0zm0 2.602h6.927v1.205H0V2.602z"/><path id="E" d="M0 0h11.344v1.206H0V0zm0 2.602h6.927v1.205H0V2.602z"/><path id="F" d="M0 0l3.273 2.157L0 4.315V0z"/><path id="G" d="M0 0h11.344v1.206H0V0zm0 2.633h6.927V3.84H0V2.633z"/><path id="H" d="M84.807 0H0v3.617h84.807V0z"/><path id="I" d="M0 0h6.863v1.428H0V0zm70.413 0h6.863v1.428h-6.863V0z"/></defs></svg>