<svg width="17" height="15" viewBox="0 0 17 15" xmlns="http://www.w3.org/2000/svg" xmlns:xlink="http://www.w3.org/1999/xlink" xmlns:figma="http://www.figma.com/figma/ns"><title>Vector</title><desc>Created using Figma</desc><g figma:type="canvas"><use xlink:href="#a" fill="#333" figma:type="vector"/></g><defs><path id="a" d="M16.314 8.81a2.224 2.224 0 0 1-.394-1.302V7.5c0-4.142-3.322-7.5-7.42-7.5-.896 0-1.755.161-2.55.456-.431.16-.903.19-1.344.064A3.596 3.596 0 0 0 3.37.393C1.557.519.099 2.019.005 3.853a3.675 3.675 0 0 0 .68 2.337c.27.377.395.837.395 1.302V7.5c0 4.142 3.322 7.5 7.42 7.5a7.31 7.31 0 0 0 2.55-.456 2.17 2.17 0 0 1 1.344-.065c.39.112.806.158 1.237.128 1.812-.126 3.27-1.626 3.364-3.46a3.675 3.675 0 0 0-.68-2.337zM8.772 6.155c1.496.36 3.757.903 3.757 3.42 0 1.24-.604 2.187-1.702 2.664-.783.341-1.669.387-2.432.387-2.346 0-3.828-1.844-3.89-1.923a1.136 1.136 0 0 1 .177-1.585 1.108 1.108 0 0 1 1.568.179c.003.004.89 1.033 2.145 1.073 1.512.048 1.857-.406 1.902-.794.054-.474-.363-.822-2.042-1.226-1.423-.342-3.574-.859-3.574-3.177 0-.722.29-3.077 4.029-3.077 2.36 0 3.754 1.878 3.812 1.958a1.136 1.136 0 0 1-.238 1.577 1.108 1.108 0 0 1-1.556-.234c-.026-.034-.823-.93-2.018-1.045-.904-.087-1.797.242-1.797.73 0 .515.257.688 1.859 1.073z"/></defs></svg>