<svg width="22" height="23" viewBox="0 0 22 23" xmlns="http://www.w3.org/2000/svg" xmlns:xlink="http://www.w3.org/1999/xlink" xmlns:figma="http://www.figma.com/figma/ns"><title>Spades</title><desc>Created using Figma</desc><g figma:type="canvas"><use xlink:href="#a" fill="#FFF" figma:type="vector"/></g><defs><path id="a" d="M21.162 9.803c-1.473-2.601-4.467-6.33-10.064-9.766-.049-.05-.098-.05-.147 0C5.306 3.472 2.31 7.104.838 9.705c-1.718 3.042-.736 6.723 2.406 8.293.834.393 1.423.442 2.11.442 0 0 .197 0 .442-.05 1.277-.195 2.406-.784 3.339-1.717l.147-.147c.196-.196.49-.049.49.245-.147 1.424-.392 3.583-1.472 4.957-.344.442-.05 1.03.49 1.03h4.468c.54 0 .786-.637.491-1.03-1.129-1.374-1.375-3.582-1.473-5.006 0-.245.246-.343.393-.196a5.756 5.756 0 0 0 2.896 1.767c.639.147 1.08.196 1.08.196.688 0 1.277-.049 2.111-.442 3.142-1.52 4.124-5.202 2.406-8.244z"/></defs></svg>