<svg width="25" height="14" viewBox="0 0 25 14" xmlns="http://www.w3.org/2000/svg" xmlns:xlink="http://www.w3.org/1999/xlink" xmlns:figma="http://www.figma.com/figma/ns"><title>Vector</title><desc>Created using Figma</desc><g figma:type="canvas"><use xlink:href="#a" fill="#507299" figma:type="vector"/></g><defs><path id="a" d="M24.022 12.643a1.696 1.696 0 0 0-.082-.16c-.419-.766-1.22-1.707-2.402-2.823l-.024-.025-.013-.013-.013-.013h-.012c-.537-.52-.876-.869-1.019-1.048-.26-.34-.318-.685-.176-1.035.1-.264.478-.821 1.132-1.673.343-.451.616-.813.817-1.086 1.45-1.959 2.079-3.21 1.886-3.756l-.075-.127c-.05-.077-.18-.147-.39-.211-.21-.064-.477-.075-.804-.032l-3.622.025a.463.463 0 0 0-.251.007L18.81.71l-.063.032-.05.039a.56.56 0 0 0-.138.134.88.88 0 0 0-.126.223 21.003 21.003 0 0 1-1.345 2.875c-.31.528-.595.986-.855 1.373-.26.388-.478.673-.654.856a4.46 4.46 0 0 1-.478.44c-.142.112-.251.158-.327.141a9.062 9.062 0 0 1-.214-.05.844.844 0 0 1-.282-.314 1.416 1.416 0 0 1-.145-.498c-.025-.2-.04-.373-.044-.518-.004-.144-.002-.349.006-.613.009-.264.013-.443.013-.536 0-.324.006-.675.019-1.054.012-.38.023-.68.031-.901.009-.222.013-.456.013-.703 0-.247-.015-.44-.044-.581a2.008 2.008 0 0 0-.132-.409.686.686 0 0 0-.258-.307 1.44 1.44 0 0 0-.421-.172c-.444-.102-1.01-.158-1.698-.166-1.559-.017-2.56.085-3.005.307a1.698 1.698 0 0 0-.478.383c-.15.187-.172.29-.063.306.503.077.86.26 1.07.55l.075.153c.058.11.117.307.176.588.058.28.096.592.113.932.042.622.042 1.154 0 1.597-.042.443-.082.788-.12 1.035a2.097 2.097 0 0 1-.17.6 2.546 2.546 0 0 1-.15.281.218.218 0 0 1-.063.064.929.929 0 0 1-.34.064c-.117 0-.26-.06-.427-.179a3.036 3.036 0 0 1-.522-.492c-.18-.208-.383-.5-.61-.875A15.352 15.352 0 0 1 6.4 3.988l-.201-.37a32.053 32.053 0 0 1-.515-1.042 20.032 20.032 0 0 1-.579-1.323.841.841 0 0 0-.302-.408L4.74.806a.856.856 0 0 0-.2-.108 1.318 1.318 0 0 0-.29-.083L.805.64C.453.64.214.721.088.883L.038.96A.419.419 0 0 0 0 1.164c0 .094.025.209.075.345a42.465 42.465 0 0 0 1.641 3.475C2.307 6.1 2.821 7 3.256 7.68c.436.681.88 1.324 1.333 1.929.453.604.753.992.9 1.162.146.17.261.298.345.384l.315.306c.2.205.496.45.886.735s.822.566 1.295.843a6.964 6.964 0 0 0 1.654.677 5.63 5.63 0 0 0 1.835.211h1.446c.294-.026.516-.12.667-.281l.05-.064a.854.854 0 0 0 .094-.236c.03-.107.044-.224.044-.351a4.276 4.276 0 0 1 .082-.99c.063-.294.134-.516.214-.665a1.638 1.638 0 0 1 .484-.562.8.8 0 0 1 .1-.045c.202-.068.438-.002.711.199.272.2.528.447.767.74.24.295.526.624.861.99.336.367.63.64.88.818l.252.154c.168.102.386.196.654.28.268.086.503.107.704.065l3.219-.051c.318 0 .566-.054.742-.16.176-.107.28-.224.314-.351.034-.128.035-.273.006-.435a1.626 1.626 0 0 0-.088-.338z"/></defs></svg>